<?xml version="1.0" encoding="UTF-8" standalone="no"?>
<!DOCTYPE svg PUBLIC "-//W3C//DTD SVG 1.1//EN" "http://www.w3.org/Graphics/SVG/1.1/DTD/svg11.dtd">
<svg width="100%" height="100%" viewBox="0 0 1275 1650" version="1.1" xmlns="http://www.w3.org/2000/svg" xmlns:xlink="http://www.w3.org/1999/xlink" xml:space="preserve" xmlns:serif="http://www.serif.com/" style="fill-rule:evenodd;clip-rule:evenodd;stroke-linejoin:round;stroke-miterlimit:2;">
    <rect id="Artboard1" x="0" y="0" width="1275" height="1650" style="fill:none;"/>
    <g id="Artboard11" serif:id="Artboard1">
        <g id="Layer1" transform="matrix(1,0,0,1,-7,0)">
            <g id="space-exp" serif:id="space exp" transform="matrix(1,0,0,1,-13.6144,320.767)">
                <g transform="matrix(1.72882,0,0,1.72882,44.0857,535.612)">
                    <text x="117.93px" y="356.647px" style="font-family:'AvenirNext-Medium', 'Avenir Next', sans-serif;font-weight:500;font-size:10.846px;">L<tspan x="124.557px 132.16px 140.955px " y="356.647px 356.647px 356.647px ">EAD</tspan></text>
                    <text x="78.225px" y="370.697px" style="font-family:'AvenirNext-Medium', 'Avenir Next', sans-serif;font-weight:500;font-size:10.846px;">D<tspan x="87.563px 95.165px 103.213px 110.816px 117.117px 127.409px 134.947px 142.55px " y="370.697px 370.697px 370.697px 370.697px 370.697px 370.697px 370.697px 370.697px ">EVELOPER</tspan></text>
                    <text x="76.211px" y="387.158px" style="font-family:'AvenirNext-MediumItalic', 'Avenir Next', sans-serif;font-weight:500;font-style:italic;font-size:9.641px;">A<tspan x="83.74px 90.44px 97.304px 100.679px 104.728px 107.986px 113.684px 121.512px 129.88px 133.254px 136.773px 143.473px " y="387.158px 387.158px 387.158px 387.158px 387.158px 387.158px 387.158px 387.158px 387.158px 387.158px 387.158px 387.158px ">PR - JUN &apos;18</tspan></text>
                </g>
                <g transform="matrix(2.08333,0,0,2.08333,11.9872,407.226)">
                    <g transform="matrix(1,0,0,1,-20.739,176.26)">
                        <text x="196.099px" y="195.477px" style="font-family:'AvenirNext-Regular', 'Avenir Next', sans-serif;font-size:9px;">+   L<tspan x="213.271px 218.419px " y="195.477px 195.477px ">ed</tspan> gr<tspan x="235.168px 240.667px " y="195.477px 195.477px ">ou</tspan>p of<tspan x="262.231px 264.481px " y="195.477px 195.477px "> 4</tspan> in designing and implementing bluetooth multiplayer game in Unity</text>
                        <text x="196.099px" y="207.477px" style="font-family:'AvenirNext-Regular', 'Avenir Next', sans-serif;font-size:9px;">+   Utilized Unity&apos;s Network manager to facilitate bluetooth communica<tspan x="485.494px " y="207.477px ">t</tspan>ion among devices</text>
                    </g>
                    <g transform="matrix(0.802203,0,0,0.802203,163.894,358.47)">
                        <text x="0px" y="0px" style="font-family:'AvenirNext-DemiBold', 'Avenir Next', sans-serif;font-weight:600;font-size:12.466px;">S<tspan x="8.402px 16.505px 26.328px 36.25px 45.101px 49.464px 58.314px 67.763px 76.614px 81.376px 90.463px 99.763px 108.09px 112.852px 124.682px " y="0px 0px 0px 0px 0px 0px 0px 0px 0px 0px 0px 0px 0px 0px 0px ">PACE EXPIRATION</tspan></text>
                        <text x="141.261px" y="0px" style="font-family:'AvenirNext-Regular', 'Avenir Next', sans-serif;font-size:11.219px;">/</text>
                        <text x="151.022px" y="0px" style="font-family:'AvenirNext-Italic', 'Avenir Next', sans-serif;font-style:italic;font-size:11.219px;">C#,<tspan x="167.918px 170.722px " y="0px 0px "> U</tspan>nity</text>
                    </g>
                </g>
            </g>
            <g id="dating" transform="matrix(1,0,0,1,-13.6144,204.934)">
                <g transform="matrix(1.72882,0,0,1.72882,44.0857,535.612)">
                    <text x="78.225px" y="356.647px" style="font-family:'AvenirNext-Medium', 'Avenir Next', sans-serif;font-weight:500;font-size:10.846px;">D<tspan x="87.563px 95.165px 103.213px 110.816px 117.117px 127.409px 134.947px 142.55px " y="356.647px 356.647px 356.647px 356.647px 356.647px 356.647px 356.647px 356.647px ">EVELOPER</tspan></text>
                    <text x="78.12px" y="373.107px" style="font-family:'AvenirNext-MediumItalic', 'Avenir Next', sans-serif;font-weight:500;font-style:italic;font-size:9.641px;">J<tspan x="83.817px 91.645px 100.013px 103.388px 107.437px 110.695px 116.393px 124.221px 129.88px 133.254px 136.773px 143.473px " y="373.107px 373.107px 373.107px 373.107px 373.107px 373.107px 373.107px 373.107px 373.107px 373.107px 373.107px 373.107px ">UN - JUL &apos;19</tspan></text>
                </g>
                <g transform="matrix(2.08333,0,0,2.08333,11.9872,407.226)">
                    <g transform="matrix(1,0,0,1,-20.739,176.26)">
                        <text x="196.099px" y="195.477px" style="font-family:'AvenirNext-Regular', 'Avenir Next', sans-serif;font-size:9px;">+</text>
                        <text x="208.843px" y="195.477px" style="font-family:'AvenirNext-Regular', 'Avenir Next', sans-serif;font-size:9px;">Developed and designed a 30 minute dating simula<tspan x="421.927px " y="195.477px ">t</tspan>or game using R<tspan x="491.533px " y="195.477px ">e</tspan>act</text>
                        <text x="196.099px" y="207.477px" style="font-family:'AvenirNext-Regular', 'Avenir Next', sans-serif;font-size:9px;">+   Built a tr<tspan x="242.404px 247.552px " y="207.477px 207.477px ">ee</tspan> data structur<tspan x="306.286px 311.434px " y="207.477px 207.477px ">e </tspan>that stor<tspan x="347.029px 352.177px " y="207.477px 207.477px ">es</tspan> scene information for the player to tr<tspan x="507.859px 512.665px " y="207.477px 207.477px ">av</tspan>erse</text>
                        <text x="196.099px" y="219.477px" style="font-family:'AvenirNext-Regular', 'Avenir Next', sans-serif;font-size:9px;">+   Implemented a speed typing mini game which r<tspan x="405.043px 410.191px " y="219.477px 219.477px ">ec</tspan>or<tspan x="423.268px 429.001px " y="219.477px 219.477px ">ds</tspan> the player<tspan x="476.53px 478.096px 482.092px " y="219.477px 219.477px 219.477px ">’s </tspan>wor<tspan x="499.633px 505.366px " y="219.477px 219.477px ">ds</tspan> per minute</text>
                    </g>
                    <g transform="matrix(0.802203,0,0,0.802203,163.894,358.47)">
                        <text x="0px" y="0px" style="font-family:'AvenirNext-DemiBold', 'Avenir Next', sans-serif;font-weight:600;font-size:12.466px;">D<tspan x="10.471px 19.771px 28.098px 32.86px 43.829px 54.712px 59.075px 67.477px 72.239px " y="0px 0px 0px 0px 0px 0px 0px 0px 0px ">ATING SIM</tspan></text>
                        <text x="90.563px" y="0px" style="font-family:'AvenirNext-Regular', 'Avenir Next', sans-serif;font-size:11.219px;">/</text>
                        <text x="100.324px" y="0px" style="font-family:'AvenirNext-Italic', 'Avenir Next', sans-serif;font-style:italic;font-size:11.219px;">R<tspan x="106.909px " y="0px ">e</tspan>act,<tspan x="130.817px 133.487px " y="0px 0px "> J</tspan>avaScript,<tspan x="187.889px 190.694px " y="0px 0px "> H</tspan>TML,<tspan x="223.016px 225.821px " y="0px 0px "> C</tspan>SS</text>
                    </g>
                </g>
            </g>
            <g id="desktop" transform="matrix(1,0,0,1,-13.4075,680.085)">
                <g transform="matrix(1.72882,0,0,1.72882,44.7095,-30.0032)">
                    <text x="78.225px" y="356.647px" style="font-family:'AvenirNext-Medium', 'Avenir Next', sans-serif;font-weight:500;font-size:10.846px;">D<tspan x="87.563px 95.165px 103.213px 110.816px 117.117px 127.409px 134.947px 142.55px " y="356.647px 356.647px 356.647px 356.647px 356.647px 356.647px 356.647px 356.647px ">EVELOPER</tspan></text>
                    <text x="93.198px" y="373.107px" style="font-family:'AvenirNext-MediumItalic', 'Avenir Next', sans-serif;font-weight:500;font-style:italic;font-size:9.641px;">J<tspan x="98.895px 106.723px 112.382px 115.756px 119.275px 125.975px 132.675px 136.05px 140.099px 143.473px " y="373.107px 373.107px 373.107px 373.107px 373.107px 373.107px 373.107px 373.107px 373.107px 373.107px ">UL &apos;19 - P</tspan></text>
                </g>
                <g transform="matrix(2.08333,0,0,2.08333,11.9872,-158.727)">
                    <g transform="matrix(1,0,0,1,-20.739,176.26)">
                        <text x="196.099px" y="195.477px" style="font-family:'AvenirNext-Regular', 'Avenir Next', sans-serif;font-size:9px;">+</text>
                        <text x="208.843px" y="195.477px" style="font-family:'AvenirNext-Regular', 'Avenir Next', sans-serif;font-size:9px;">Developed and designed an inter<tspan x="347.047px 351.853px " y="195.477px 195.477px ">ac</tspan>tive desktop simulator for my personal website</text>
                        <text x="196.099px" y="207.477px" style="font-family:'AvenirNext-Regular', 'Avenir Next', sans-serif;font-size:9px;">+   <tspan x="208.681px 214.981px " y="207.477px 207.477px ">Ad</tspan>opted R<tspan x="253.195px " y="207.477px ">e</tspan>act functional components with hooks to pr<tspan x="435.067px 440.566px " y="207.477px 207.477px ">om</tspan>ote best pr<tspan x="493.09px 497.896px " y="207.477px 207.477px ">ac</tspan>tices</text>
                    </g>
                    <g transform="matrix(0.802203,0,0,0.802203,163.894,358.47)">
                        <text x="0px" y="0px" style="font-family:'AvenirNext-DemiBold', 'Avenir Next', sans-serif;font-weight:600;font-size:12.466px;">D<tspan x="10.77px 19.621px 28.023px 37.709px 45.662px 57.492px 66.342px 70.705px 79.107px 83.869px " y="0px 0px 0px 0px 0px 0px 0px 0px 0px 0px ">ESKTOP SIM</tspan></text>
                        <text x="102.194px" y="0px" style="font-family:'AvenirNext-Regular', 'Avenir Next', sans-serif;font-size:11.219px;">/</text>
                        <text x="111.954px" y="0px" style="font-family:'AvenirNext-Italic', 'Avenir Next', sans-serif;font-style:italic;font-size:11.219px;">R<tspan x="118.54px " y="0px ">e</tspan>act,<tspan x="142.448px 145.118px " y="0px 0px "> J</tspan>avaScript,<tspan x="199.519px 202.324px " y="0px 0px "> H</tspan>TML,<tspan x="234.646px 237.451px " y="0px 0px "> S</tspan>CSS</text>
                    </g>
                </g>
            </g>
            <g id="desktop1" serif:id="desktop" transform="matrix(1,0,0,1,-13.4075,564.442)">
                <g transform="matrix(1.72882,0,0,1.72882,44.7095,-30.0032)">
                    <text x="81.706px" y="356.647px" style="font-family:'AvenirNext-Medium', 'Avenir Next', sans-serif;font-weight:500;font-size:10.846px;">F<tspan x="88.951px 97.758px 104.384px 111.011px 118.093px 124.698px 133.298px 142.062px " y="356.647px 356.647px 356.647px 356.647px 356.647px 356.647px 356.647px 356.647px ">ULLSTACK</tspan></text>
                    <text x="78.225px" y="370.697px" style="font-family:'AvenirNext-Medium', 'Avenir Next', sans-serif;font-weight:500;font-size:10.846px;">D<tspan x="87.563px 95.165px 103.213px 110.816px 117.117px 127.409px 134.947px 142.55px " y="370.697px 370.697px 370.697px 370.697px 370.697px 370.697px 370.697px 370.697px ">EVELOPER</tspan></text>
                    <text x="106.395px" y="387.158px" style="font-family:'AvenirNext-MediumItalic', 'Avenir Next', sans-serif;font-weight:500;font-style:italic;font-size:9.641px;">A<tspan x="113.809px 121.637px 129.88px 133.254px 136.773px 143.473px " y="387.158px 387.158px 387.158px 387.158px 387.158px 387.158px ">UG &apos;19</tspan></text>
                </g>
                <g transform="matrix(2.08333,0,0,2.08333,11.9872,-158.727)">
                    <g transform="matrix(1,0,0,1,-20.739,176.26)">
                        <text x="196.099px" y="195.477px" style="font-family:'AvenirNext-Regular', 'Avenir Next', sans-serif;font-size:9px;">+</text>
                        <text x="208.843px" y="195.477px" style="font-family:'AvenirNext-Regular', 'Avenir Next', sans-serif;font-size:9px;">Developed and designed a web application for r<tspan x="407.878px " y="195.477px ">a</tspan>ting and r<tspan x="451.96px 457.108px " y="195.477px 195.477px ">eq</tspan>uesting of<tspan x="503.458px 508.354px " y="195.477px 195.477px ">ﬁc</tspan>e snacks</text>
                        <text x="196.099px" y="207.477px" style="font-family:'AvenirNext-Regular', 'Avenir Next', sans-serif;font-size:9px;">+   Built back<tspan x="248.884px 254.032px " y="207.477px 207.477px ">en</tspan>d for r<tspan x="283.966px 289.114px " y="207.477px 207.477px ">ec</tspan>eiving user r<tspan x="343.816px " y="207.477px ">a</tspan>tings and r<tspan x="391.894px 397.042px " y="207.477px 207.477px ">eq</tspan>uests using F<tspan x="455.767px 458.017px 461.095px 466.243px " y="207.477px 207.477px 207.477px 207.477px ">ireb</tspan>ase</text>
                        <text x="196.099px" y="219.477px" style="font-family:'AvenirNext-Regular', 'Avenir Next', sans-serif;font-size:9px;">+   Integr<tspan x="233.233px " y="219.477px ">a</tspan>ted sorting algorithm to or<tspan x="346.057px 351.79px " y="219.477px 219.477px ">de</tspan>r snacks based on user pr<tspan x="461.041px 466.189px " y="219.477px 219.477px ">ef</tspan>er<tspan x="477.07px 482.218px " y="219.477px 219.477px ">en</tspan>ce</text>
                    </g>
                    <g transform="matrix(0.802203,0,0,0.802203,163.894,358.47)">
                        <text x="0px" y="0px" style="font-family:'AvenirNext-DemiBold', 'Avenir Next', sans-serif;font-weight:600;font-size:12.466px;">S<tspan x="8.402px 19.372px 29.195px 39.117px 48.803px 52.942px 62.989px 71.84px " y="0px 0px 0px 0px 0px 0px 0px 0px ">NACK APP</tspan></text>
                        <text x="86.3px" y="0px" style="font-family:'AvenirNext-Regular', 'Avenir Next', sans-serif;font-size:11.219px;">/</text>
                        <text x="96.061px" y="0px" style="font-family:'AvenirNext-Italic', 'Avenir Next', sans-serif;font-style:italic;font-size:11.219px;">R<tspan x="102.646px " y="0px ">e</tspan>act,<tspan x="126.554px 129.224px " y="0px 0px "> J</tspan>avaScript,<tspan x="183.626px 186.43px 192.399px 195.204px 198.973px " y="0px 0px 0px 0px 0px "> Fire</tspan>base,<tspan x="232.272px 235.077px " y="0px 0px "> H</tspan>TML,<tspan x="267.399px 270.204px " y="0px 0px "> S</tspan>CSS</text>
                    </g>
                </g>
            </g>
            <g id="color" transform="matrix(1,0,0,1,-13.3186,-116.805)">
                <g transform="matrix(1.72882,0,0,1.72882,44.0857,535.612)">
                    <text x="81.901px" y="356.647px" style="font-family:'AvenirNext-Medium', 'Avenir Next', sans-serif;font-weight:500;font-size:10.846px;">F<tspan x="89.146px 96.89px 107.182px 116.64px 123.895px 131.498px 140.955px " y="356.647px 356.647px 356.647px 356.647px 356.647px 356.647px 356.647px ">RONTEND</tspan></text>
                    <text x="78.225px" y="370.697px" style="font-family:'AvenirNext-Medium', 'Avenir Next', sans-serif;font-weight:500;font-size:10.846px;">D<tspan x="87.563px 95.165px 103.213px 110.816px 117.117px 127.409px 134.947px 142.55px " y="370.697px 370.697px 370.697px 370.697px 370.697px 370.697px 370.697px 370.697px ">EVELOPER</tspan></text>
                    <text x="74.013px" y="387.158px" style="font-family:'AvenirNext-MediumItalic', 'Avenir Next', sans-serif;font-weight:500;font-style:italic;font-size:9.641px;">O<tspan x="82.988px 90.643px 96.533px 99.907px 103.956px 107.331px 115.592px 122.167px 129.88px 133.254px 136.773px 143.473px " y="387.158px 387.158px 387.158px 387.158px 387.158px 387.158px 387.158px 387.158px 387.158px 387.158px 387.158px 387.158px ">CT - DEC &apos;18</tspan></text>
                </g>
                <g transform="matrix(2.08333,0,0,2.08333,11.9872,407.226)">
                    <g transform="matrix(1,0,0,1,-20.739,176.26)">
                        <text x="196.099px" y="195.477px" style="font-family:'AvenirNext-Regular', 'Avenir Next', sans-serif;font-size:9px;">+</text>
                        <text x="208.843px" y="195.477px" style="font-family:'AvenirNext-Regular', 'Avenir Next', sans-serif;font-size:9px;">Developed a dr<tspan x="272.878px 277.684px " y="195.477px 195.477px ">aw</tspan>ing application tha<tspan x="360.682px " y="195.477px ">t</tspan> gener<tspan x="390.13px " y="195.477px ">a</tspan>tes music using pat<tspan x="473.083px 475.936px " y="195.477px 195.477px ">te</tspan>rn r<tspan x="494.881px 500.029px " y="195.477px 195.477px ">ec</tspan>ognition</text>
                        <text x="196.099px" y="207.477px" style="font-family:'AvenirNext-Regular', 'Avenir Next', sans-serif;font-size:9px;">+   Implemented algorithm for gener<tspan x="346.606px " y="207.477px ">a</tspan>ting paintbrush str<tspan x="426.067px 431.566px 435.994px 441.142px " y="207.477px 207.477px 207.477px 207.477px ">okes</tspan> based on mouse velocity</text>
                        <text x="196.099px" y="219.477px" style="font-family:'AvenirNext-Regular', 'Avenir Next', sans-serif;font-size:9px;">+   Built a history data structur<tspan x="317.536px 322.684px " y="219.477px 219.477px ">e </tspan>for undoing and r<tspan x="396.781px 401.929px " y="219.477px 219.477px ">ed</tspan>oing individual paint str<tspan x="503.998px 509.497px 513.925px 519.073px " y="219.477px 219.477px 219.477px 219.477px ">okes</tspan></text>
                    </g>
                    <g transform="matrix(0.802203,0,0,0.802203,163.894,358.47)">
                        <text x="0px" y="0px" style="font-family:'AvenirNext-DemiBold', 'Avenir Next', sans-serif;font-weight:600;font-size:12.466px;">C<tspan x="9.773px 21.603px 28.846px 40.676px " y="0px 0px 0px 0px ">OLOR</tspan></text>
                        <text x="55.373px" y="0px" style="font-family:'AvenirNext-Regular', 'Avenir Next', sans-serif;font-size:11.219px;">/</text>
                        <text x="65.133px" y="0px" style="font-family:'AvenirNext-Italic', 'Avenir Next', sans-serif;font-style:italic;font-size:11.219px;">R<tspan x="71.719px " y="0px ">e</tspan>act,<tspan x="95.627px 98.297px " y="0px 0px "> J</tspan>avaScript,<tspan x="152.698px 155.503px " y="0px 0px "> p</tspan>5.js,<tspan x="182.35px 185.155px " y="0px 0px "> H</tspan>TML,<tspan x="217.477px 220.282px " y="0px 0px "> C</tspan>SS</text>
                    </g>
                </g>
            </g>
            <g id="virtual-rooms" serif:id="virtual rooms" transform="matrix(1,0,0,1,-14,464.118)">
                <g transform="matrix(1.72882,0,0,1.72882,44.7095,-161.11)">
                    <text x="78.225px" y="356.647px" style="font-family:'AvenirNext-Medium', 'Avenir Next', sans-serif;font-weight:500;font-size:10.846px;">D<tspan x="87.563px 95.165px 103.213px 110.816px 117.117px 127.409px 134.947px 142.55px " y="356.647px 356.647px 356.647px 356.647px 356.647px 356.647px 356.647px 356.647px ">EVELOPER</tspan></text>
                    <text x="107.359px" y="373.107px" style="font-family:'AvenirNext-MediumItalic', 'Avenir Next', sans-serif;font-weight:500;font-style:italic;font-size:9.641px;">O<tspan x="116.335px 123.989px 129.88px 133.254px 136.773px 143.473px " y="373.107px 373.107px 373.107px 373.107px 373.107px 373.107px ">CT &apos;18</tspan></text>
                </g>
                <g transform="matrix(2.08333,0,0,2.08333,12.3728,-289.497)">
                    <g transform="matrix(1,0,0,1,-20.739,176.26)">
                        <text x="196.099px" y="195.477px" style="font-family:'AvenirNext-Regular', 'Avenir Next', sans-serif;font-size:9px;">+ <tspan x="204.179px 206.265px 208.243px 216.991px " y="195.477px 195.477px 195.477px 195.477px ">  Wi</tspan>nning <tspan x="244.952px " y="195.477px ">M</tspan>Hacks <tspan x="279.312px " y="195.477px ">h</tspan>acka<tspan x="303.117px " y="195.477px ">t</tspan>hon <tspan x="324.031px " y="195.477px ">s</tspan>ubmission <tspan x="372.242px " y="195.477px ">f</tspan>or <tspan x="385.722px " y="195.477px ">b</tspan>est <tspan x="405.538px " y="195.477px ">u</tspan>se <tspan x="421.997px 427.496px 430.367px 432.345px 440.769px 445.575px " y="195.477px 195.477px 195.477px 195.477px 195.477px 195.477px ">of Way</tspan>fair&apos;s <tspan x="471.34px " y="195.477px ">3</tspan>D <tspan x="485.459px " y="195.477px ">m</tspan>odel <tspan x="514.14px " y="195.477px ">d</tspan>atabase <tspan x="553.855px 560.155px " y="195.477px 195.477px ">AP</tspan>I</text>
                        <text x="196.099px" y="207.477px" style="font-family:'AvenirNext-Regular', 'Avenir Next', sans-serif;font-size:9px;">+   Developed iOS and <tspan x="292.039px 298.339px " y="207.477px 207.477px ">An</tspan>dr<tspan x="312.379px 317.878px " y="207.477px 207.477px ">oi</tspan>d platform for cr<tspan x="386.476px 391.57px " y="207.477px 207.477px ">ea</tspan>ting <tspan x="414.394px 420.001px " y="207.477px 207.477px ">VR</tspan> interior r<tspan x="462.679px 468.178px " y="207.477px 207.477px ">oo</tspan>m designs using Unity</text>
                        <text x="196.099px" y="219.477px" style="font-family:'AvenirNext-Regular', 'Avenir Next', sans-serif;font-size:9px;">+</text>
                        <text x="208.843px" y="219.477px" style="font-family:'AvenirNext-Regular', 'Avenir Next', sans-serif;font-size:9px;">Implemented UI and functionality for adding,<tspan x="392.983px 395.233px 398.311px 403.459px " y="219.477px 219.477px 219.477px 219.477px "> rep</tspan>ositioning,<tspan x="451.987px 454.237px " y="219.477px 219.477px "> a</tspan>nd r<tspan x="475.333px 480.481px " y="219.477px 219.477px ">em</tspan>oving furnitur<tspan x="543.499px " y="219.477px ">e</tspan></text>
                    </g>
                    <g transform="matrix(0.802203,0,0,0.802203,163.894,358.47)">
                        <text x="0px" y="0px" style="font-family:'AvenirNext-DemiBold', 'Avenir Next', sans-serif;font-weight:600;font-size:12.466px;">V<tspan x="9.387px 14.149px 23.086px 31.414px 41.386px 51.433px 58.751px 63.114px 72.201px 84.031px 95.861px 108.576px " y="0px 0px 0px 0px 0px 0px 0px 0px 0px 0px 0px 0px ">IRTUAL ROOMS</tspan></text>
                        <text x="122.587px" y="0px" style="font-family:'AvenirNext-Regular', 'Avenir Next', sans-serif;font-size:11.219px;">/</text>
                        <text x="132.348px" y="0px" style="font-family:'AvenirNext-Italic', 'Avenir Next', sans-serif;font-style:italic;font-size:11.219px;">C#,<tspan x="149.244px 152.049px " y="0px 0px "> U</tspan>nity</text>
                    </g>
                </g>
            </g>
            <g id="PROJ" transform="matrix(1,0,0,1,-14,-535.247)">
                <g transform="matrix(1.71227,0,0,1.71227,124.122,1159.22)">
                    <text x="24.608px" y="151.16px" style="font-family:'AvenirNext-DemiBold', 'Avenir Next', sans-serif;font-weight:600;font-size:14.6px;fill:rgb(227,87,87);">P<tspan x="34.975px 45.618px 58.949px 67.68px 78.046px 89.581px 99.334px " y="151.16px 151.16px 151.16px 151.16px 151.16px 151.16px 151.16px ">ROJECTS</tspan></text>
                </g>
                <g transform="matrix(2.14232,0,0,-0.00621522,-24.5561,1413.28)">
                    <rect x="176.152" y="489.521" width="371.31" height="342.941" style="fill:rgb(227,87,87);"/>
                </g>
            </g>
            <g id="radio" transform="matrix(1,0,0,1,-14,0.104666)">
                <g transform="matrix(1.72882,0,0,1.72882,44.4095,170.981)">
                    <text x="73.409px" y="356.647px" style="font-family:'AvenirNext-DemiBold', 'Avenir Next', sans-serif;font-weight:600;font-size:10.846px;">U<tspan x="82.238px 90.871px 97.497px 106.044px 109.839px 117.746px 126.487px 135.858px 140.001px " y="356.647px 356.647px 356.647px 356.647px 356.647px 356.647px 356.647px 356.647px 356.647px ">CLA RADIO</tspan></text>
                    <text x="75.825px" y="373.107px" style="font-family:'AvenirNext-MediumItalic', 'Avenir Next', sans-serif;font-weight:500;font-style:italic;font-size:9.641px;">J<tspan x="81.407px 88.936px 97.304px 100.679px 104.728px 107.986px 113.684px 121.512px 129.88px 133.254px 136.773px 143.473px " y="373.107px 373.107px 373.107px 373.107px 373.107px 373.107px 373.107px 373.107px 373.107px 373.107px 373.107px 373.107px ">AN - JUN &apos;19</tspan></text>
                </g>
                <g transform="matrix(2.08333,0,0,2.08333,12.3728,42.2564)">
                    <g>
                        <g transform="matrix(1,0,0,1,-20.739,176.26)">
                            <text x="196.099px" y="195.477px" style="font-family:'AvenirNext-Regular', 'Avenir Next', sans-serif;font-size:9px;">+</text>
                            <text x="208.843px" y="195.477px" style="font-family:'AvenirNext-Regular', 'Avenir Next', sans-serif;font-size:9px;">Built the panel page to allow D<tspan x="334.618px 339.046px 340.612px 344.608px " y="195.477px 195.477px 195.477px 195.477px ">J’s </tspan>to log in and edit their pr<tspan x="448.927px 454.426px " y="195.477px 195.477px ">oﬁ</tspan>le and show information</text>
                            <text x="196.099px" y="207.477px" style="font-family:'AvenirNext-Regular', 'Avenir Next', sans-serif;font-size:9px;">+   Optimized sear<tspan x="271.591px 276.091px " y="207.477px 207.477px ">ch</tspan> algorithm to suppor<tspan x="365.524px 368.377px " y="207.477px 207.477px ">t </tspan>ﬁltering by author on the blog page</text>
                        </g>
                        <g transform="matrix(0.802203,0,0,0.802203,163.894,358.47)">
                            <text x="0px" y="0px" style="font-family:'AvenirNext-DemiBold', 'Avenir Next', sans-serif;font-weight:600;font-size:12.466px;">S<tspan x="8.402px 20.232px 28.621px 36.948px 50.561px 60.608px 69.696px 78.546px 82.909px 91.76px 102.73px 113.612px 118.374px 129.344px 138.195px 147.045px 156.133px 160.895px 171.864px 182.747px 187.11px 191.872px 202.842px 211.169px 220.019px 229.107px " y="0px 0px 0px 0px 0px 0px 0px 0px 0px 0px 0px 0px 0px 0px 0px 0px 0px 0px 0px 0px 0px 0px 0px 0px 0px 0px ">OFTWARE ENGINEERING INTERN</tspan></text>
                        </g>
                    </g>
                </g>
            </g>
            <g id="devx" transform="matrix(1,0,0,1,-14,-480.204)">
                <g transform="matrix(1.72882,0,0,1.72882,44.0857,535.612)">
                    <text x="116.835px" y="356.647px" style="font-family:'AvenirNext-DemiBold', 'Avenir Next', sans-serif;font-weight:600;font-size:10.846px;">D<tspan x="126.205px 133.906px 142.073px " y="356.647px 356.647px 356.647px ">EVX</tspan></text>
                    <text x="54.491px" y="373.107px" style="font-family:'AvenirNext-MediumItalic', 'Avenir Next', sans-serif;font-weight:500;font-style:italic;font-size:9.641px;">O<tspan x="63.466px 71.121px 77.011px 80.385px 83.904px 90.604px 97.304px 100.679px 104.728px 107.986px 113.684px 121.512px 129.88px 133.254px 136.773px 143.473px " y="373.107px 373.107px 373.107px 373.107px 373.107px 373.107px 373.107px 373.107px 373.107px 373.107px 373.107px 373.107px 373.107px 373.107px 373.107px 373.107px ">CT &apos;18 - JUN &apos;19</tspan></text>
                </g>
                <g transform="matrix(2.08333,0,0,2.08333,11.9872,407.226)">
                    <g transform="matrix(1,0,0,1,-20.739,176.26)">
                        <text x="196.099px" y="195.477px" style="font-family:'AvenirNext-Regular', 'Avenir Next', sans-serif;font-size:9px;">+   Developed BruinHub<tspan x="295.945px 298.015px 300.265px " y="195.477px 195.477px 195.477px ">, a</tspan> college course planner built with a r<tspan x="453.868px 459.016px " y="195.477px 195.477px ">ec</tspan>ommendation system</text>
                        <text x="196.099px" y="207.477px" style="font-family:'AvenirNext-Regular', 'Avenir Next', sans-serif;font-size:9px;">+</text>
                        <text x="208.843px" y="207.477px" style="font-family:'AvenirNext-Regular', 'Avenir Next', sans-serif;font-size:9px;">Integr<tspan x="233.233px " y="207.477px ">a</tspan>ted Redux ar<tspan x="289.816px 294.316px " y="207.477px 207.477px ">ch</tspan>itectur<tspan x="325.474px 330.622px " y="207.477px 207.477px ">e </tspan>to achieve a persistent stat</text>
                        <text x="441.367px" y="207.477px" style="font-family:'AvenirNext-Regular', 'Avenir Next', sans-serif;font-size:9px;">e</text>
                        <text x="448.765px" y="207.477px" style="font-family:'AvenirNext-Regular', 'Avenir Next', sans-serif;font-size:9px;">acr<tspan x="461.149px 466.648px " y="207.477px 207.477px ">os</tspan>s pages</text>
                        <text x="196.099px" y="219.477px" style="font-family:'AvenirNext-Regular', 'Avenir Next', sans-serif;font-size:9px;">+</text>
                        <text x="208.843px" y="219.477px" style="font-family:'AvenirNext-Regular', 'Avenir Next', sans-serif;font-size:9px;">Implemented ﬂuid dr<tspan x="295.792px 300.598px " y="219.477px 219.477px ">ag</tspan> and dr<tspan x="335.365px 340.864px " y="219.477px 219.477px ">op</tspan> functionality for adding classes into the calendar</text>
                    </g>
                    <g transform="matrix(0.802203,0,0,0.802203,163.894,358.47)">
                        <text x="0px" y="0px" style="font-family:'AvenirNext-DemiBold', 'Avenir Next', sans-serif;font-weight:600;font-size:12.466px;">F<tspan x="8.389px 17.477px 29.307px 40.277px 48.604px 57.454px 68.424px 79.194px 83.557px 94.328px 103.178px 112.565px 121.416px 128.658px 140.488px 149.339px 158.189px " y="0px 0px 0px 0px 0px 0px 0px 0px 0px 0px 0px 0px 0px 0px 0px 0px 0px ">RONTEND DEVELOPER</tspan></text>
                    </g>
                </g>
            </g>
            <g id="coupa" transform="matrix(1,0,0,1,-14,-230.98)">
                <g transform="matrix(1.72882,0,0,1.72882,44.4095,170.981)">
                    <text x="107.074px" y="356.647px" style="font-family:'AvenirNext-DemiBold', 'Avenir Next', sans-serif;font-weight:600;font-size:10.846px;">C<tspan x="115.577px 125.869px 134.698px 141.747px " y="356.647px 356.647px 356.647px 356.647px ">OUPA</tspan></text>
                    <text x="81.956px" y="370.697px" style="font-family:'AvenirNext-DemiBold', 'Avenir Next', sans-serif;font-weight:600;font-size:10.846px;">S<tspan x="89.265px 99.558px 106.857px 114.102px 125.945px 134.687px 142.593px " y="370.697px 370.697px 370.697px 370.697px 370.697px 370.697px 370.697px ">OFTWARE</tspan></text>
                    <text x="90.489px" y="387.158px" style="font-family:'AvenirNext-MediumItalic', 'Avenir Next', sans-serif;font-weight:500;font-style:italic;font-size:9.641px;">J<tspan x="96.186px 104.014px 112.382px 115.756px 119.275px 125.975px 132.675px 136.05px 140.099px 143.473px " y="387.158px 387.158px 387.158px 387.158px 387.158px 387.158px 387.158px 387.158px 387.158px 387.158px ">UN &apos;19 - P</tspan></text>
                </g>
                <g transform="matrix(2.08333,0,0,2.08333,12.3728,42.2564)">
                    <g>
                        <g transform="matrix(1,0,0,1,-20.739,176.26)">
                            <text x="196.099px" y="195.477px" style="font-family:'AvenirNext-Regular', 'Avenir Next', sans-serif;font-size:9px;">+   Integr<tspan x="233.233px " y="195.477px ">a</tspan>ted web accessibility standar<tspan x="355.471px 361.204px " y="195.477px 195.477px ">ds</tspan> by building scr<tspan x="428.029px 433.177px " y="195.477px 195.477px ">ee</tspan>nr<tspan x="446.632px 451.726px " y="195.477px 195.477px ">ea</tspan>der<tspan x="470.437px 473.317px " y="195.477px 195.477px ">-f</tspan>riendly err<tspan x="517.948px 523.447px " y="195.477px 195.477px ">or</tspan> messages</text>
                            <text x="196.099px" y="207.477px" style="font-family:'AvenirNext-Regular', 'Avenir Next', sans-serif;font-size:9px;">+   B</text>
                            <text x="214.567px" y="207.477px" style="font-family:'AvenirNext-Regular', 'Avenir Next', sans-serif;font-size:9px;">uilt an at<tspan x="249.163px 252.016px " y="207.477px 207.477px ">ta</tspan>chment ﬁeld which communicates to the server thr<tspan x="463.255px 468.754px " y="207.477px 207.477px ">ou</tspan>gh <tspan x="487.006px 493.306px 497.626px 503.926px 509.659px 511.909px " y="207.477px 207.477px 207.477px 207.477px 207.477px 207.477px ">AJAX c</tspan>alls</text>
                            <text x="196.099px" y="219.477px" style="font-family:'AvenirNext-Regular', 'Avenir Next', sans-serif;font-size:9px;">+   Intr<tspan x="222.343px 227.842px " y="219.477px 219.477px ">od</tspan>uced centr<tspan x="277.297px 282.103px " y="219.477px 219.477px ">al</tspan>ized documentation</text>
                            <text x="368.35px" y="219.477px" style="font-family:'AvenirNext-Regular', 'Avenir Next', sans-serif;font-size:9px;">of<tspan x="376.72px 378.97px 384.253px " y="219.477px 219.477px 219.477px "> Re</tspan>act components for internal and external use</text>
                        </g>
                        <g transform="matrix(0.802203,0,0,0.802203,163.414,358.47)">
                            <text x="0px" y="0px" style="font-family:'AvenirNext-DemiBold', 'Avenir Next', sans-serif;font-weight:600;font-size:12.466px;">F<tspan x="8.389px 17.477px 29.307px 40.277px 48.604px 57.454px 68.424px 79.194px 83.557px 94.328px 103.178px 112.565px 121.416px 128.658px 140.488px 149.339px 158.189px 167.277px 171.64px 176.402px 187.372px 195.699px 204.549px 213.637px " y="0px 0px 0px 0px 0px 0px 0px 0px 0px 0px 0px 0px 0px 0px 0px 0px 0px 0px 0px 0px 0px 0px 0px 0px ">RONTEND DEVELOPER INTERN</tspan></text>
                        </g>
                    </g>
                </g>
            </g>
            <g id="EXP" transform="matrix(1,0,0,1,-14,-226.52)">
                <g transform="matrix(1.71227,0,0,1.71227,37.872,487.485)">
                    <text x="54.379px" y="151.16px" style="font-family:'AvenirNext-DemiBold', 'Avenir Next', sans-serif;font-weight:600;font-size:14.6px;fill:rgb(227,87,87);">E<tspan x="64.745px 75.812px 86.179px 96.545px 107.189px 112.766px 123.133px 135.981px 147.603px " y="151.16px 151.16px 151.16px 151.16px 151.16px 151.16px 151.16px 151.16px 151.16px ">XPERIENCE</tspan></text>
                </g>
                <g transform="matrix(2.14232,0,0,-0.00621522,-24.5561,741.546)">
                    <rect x="176.152" y="489.521" width="371.31" height="342.941" style="fill:rgb(227,87,87);"/>
                </g>
            </g>
            <g transform="matrix(1,-6.48393e-18,-1.49877e-17,1,363.32,437.597)">
                <g id="skills">
                    <text x="0px" y="14.175px" style="font-family:'AvenirNext-Regular', 'Avenir Next', sans-serif;font-size:18.75px;">+</text>
                    <text x="26.55px" y="14.175px" style="font-family:'AvenirNext-DemiBoldItalic', 'Avenir Next', sans-serif;font-weight:600;font-style:italic;font-size:18.75px;">Languages:</text>
                    <text x="130.931px" y="14.175px" style="font-family:'AvenirNext-Regular', 'Avenir Next', sans-serif;font-size:18.75px;"><tspan x="130.931px 140.044px " y="14.175px 14.175px ">Ja</tspan>vaScript,<tspan x="222.769px 227.456px " y="14.175px 14.175px "> H</tspan>TML,<tspan x="282.094px 286.781px " y="14.175px 14.175px "> C</tspan>SS,<tspan x="325.744px 330.431px " y="14.175px 14.175px "> S</tspan>CSS,<tspan x="379.969px 384.656px " y="14.175px 14.175px "> C</tspan>++,<tspan x="427.444px 432.131px 445.631px 449.944px 454.631px " y="14.175px 14.175px 14.175px 14.175px 14.175px "> C, C</tspan>#,<tspan x="482.869px 487.106px 495.994px 505.144px " y="14.175px 14.175px 14.175px 14.175px "> Typ</tspan>eScript,<tspan x="581.325px 586.013px 596.1px 605.25px " y="14.175px 14.175px 14.175px 14.175px "> Pyt</tspan>hon,<tspan x="648.788px 653.475px 663px 674.456px " y="14.175px 14.175px 14.175px 14.175px "> Pos</tspan>tgr<tspan x="706.988px 717.713px " y="14.175px 14.175px ">eS</tspan>QL,<tspan x="757.969px 762.656px " y="14.175px 14.175px "> L</tspan>isp</text>
                    <text x="0px" y="41.258px" style="font-family:'AvenirNext-Regular', 'Avenir Next', sans-serif;font-size:18.75px;">+</text>
                    <text x="26.55px" y="41.258px" style="font-family:'AvenirNext-DemiBoldItalic', 'Avenir Next', sans-serif;font-weight:600;font-style:italic;font-size:18.75px;">Sof<tspan x="54.469px 60.844px " y="41.258px 41.258px ">tw</tspan>ar<tspan x="91.8px 102.375px " y="41.258px 41.258px ">e </tspan>&amp; <tspan x="125.156px 133.35px 144.675px " y="41.258px 41.258px 41.258px ">Too</tspan>ls:</text>
                    <text x="179.644px" y="41.258px" style="font-family:'AvenirNext-Regular', 'Avenir Next', sans-serif;font-size:18.75px;">R<tspan x="190.65px 201.262px " y="41.258px 41.258px ">ea</tspan>ct,<tspan x="230.906px 235.594px 246.6px 257.325px " y="41.258px 41.258px 41.258px 41.258px "> Red</tspan>ux,<tspan x="293.55px 298.238px 308.438px 313.125px 319.538px 330.263px " y="41.258px 41.258px 41.258px 41.258px 41.258px 41.258px "> Fireb</tspan>ase,<tspan x="375.581px 380.269px " y="41.258px 41.258px "> G</tspan>it,<tspan x="409.819px 414.281px 423.506px " y="41.258px 41.258px 41.258px "> Je</tspan>st,<tspan x="452.813px 457.5px " y="41.258px 41.258px "> U</tspan>nity<tspan x="500.813px 505.125px 509.588px 527.138px 537.863px " y="41.258px 41.258px 41.258px 41.258px 41.258px ">, Web</tspan>GL,<tspan x="578.288px 582.975px " y="41.258px 41.258px "> D</tspan>ocz,<tspan x="630.6px 635.288px 645.488px 650.175px " y="41.258px 41.258px 41.258px 41.258px "> Fig</tspan>ma</text>
                </g>
            </g>
            <g id="SKILL" transform="matrix(1,0,0,1,-14,6.75172)">
                <g transform="matrix(1.71227,0,0,1.71227,59.922,148.846)">
                    <text x="90.588px" y="151.16px" style="font-family:'AvenirNext-DemiBold', 'Avenir Next', sans-serif;font-weight:600;font-size:14.6px;fill:rgb(227,87,87);">S<tspan x="100.429px 111.949px 117.526px 126.447px 135.368px " y="151.16px 151.16px 151.16px 151.16px 151.16px ">KILLS</tspan></text>
                </g>
                <g transform="matrix(2.14232,0,0,-0.00621522,-24.5561,402.955)">
                    <rect x="176.152" y="489.521" width="371.31" height="342.941" style="fill:rgb(227,87,87);"/>
                </g>
            </g>
            <g id="ucla" transform="matrix(1,0,0,1,-14,-5.57191)">
                <g transform="matrix(1.72882,0,0,1.72882,44.9533,-346.94)">
                    <text x="87.942px" y="356.647px" style="font-family:'AvenirNext-MediumItalic', 'Avenir Next', sans-serif;font-weight:500;font-style:italic;font-size:10.846px;">E<tspan x="95.339px 103.169px 110.707px 118.104px 126.715px 133.602px 140.999px " y="356.647px 356.647px 356.647px 356.647px 356.647px 356.647px 356.647px ">XPECTED</tspan></text>
                    <text x="98.105px" y="373.107px" style="font-family:'AvenirNext-MediumItalic', 'Avenir Next', sans-serif;font-weight:500;font-style:italic;font-size:9.641px;">J<tspan x="103.802px 111.63px 119.998px 123.372px 130.072px 136.773px 143.473px " y="373.107px 373.107px 373.107px 373.107px 373.107px 373.107px 373.107px ">UN 2020</tspan></text>
                </g>
                <g transform="matrix(2.08333,0,0,2.08333,12.3728,-474.789)">
                    <g transform="matrix(1,0,0,1,-20.739,176.26)">
                        <text x="196.099px" y="195.477px" style="font-family:'AvenirNext-DemiBold', 'Avenir Next', sans-serif;font-weight:600;font-size:9px;">BS,<tspan x="209.158px 211.408px 217.564px " y="195.477px 195.477px 195.477px "> Co</tspan>mputer Science</text>
                        <text x="294.433px" y="195.477px" style="font-family:'AvenirNext-Italic', 'Avenir Next', sans-serif;font-style:italic;font-size:9px;">GP<tspan x="306.043px 312.298px " y="195.477px 195.477px ">A:</tspan></text>
                        <text x="317.248px" y="195.477px" style="font-family:'AvenirNext-Regular', 'Avenir Next', sans-serif;font-size:9px;">3.562</text>
                        <text x="196.099px" y="208.477px" style="font-family:'AvenirNext-Regular', 'Avenir Next', sans-serif;font-size:9px;">+</text>
                        <text x="208.843px" y="208.477px" style="font-family:'AvenirNext-DemiBoldItalic', 'Avenir Next', sans-serif;font-weight:600;font-style:italic;font-size:9px;">Honors:</text>
                        <text x="243.529px" y="208.477px" style="font-family:'AvenirNext-Regular', 'Avenir Next', sans-serif;font-size:9px;">Upsilon P<tspan x="282.13px 284.38px " y="208.477px 208.477px ">i </tspan>Epsilon (C<tspan x="328.237px " y="208.477px ">o</tspan>mputer Science Honor Society),<tspan x="462.886px 465.136px " y="208.477px 208.477px "> D</tspan>ean&apos;s Honor List</text>
                        <text x="196.099px" y="221.477px" style="font-family:'AvenirNext-Regular', 'Avenir Next', sans-serif;font-size:9px;">+</text>
                        <text x="208.843px" y="221.477px" style="font-family:'AvenirNext-DemiBoldItalic', 'Avenir Next', sans-serif;font-weight:600;font-style:italic;font-size:9px;">C<tspan x="214.864px 220.3px " y="221.477px 221.477px ">ou</tspan>rsework:</text>
                        <text x="262.87px" y="221.477px" style="font-family:'AvenirNext-Regular', 'Avenir Next', sans-serif;font-size:9px;">Oper<tspan x="284.515px " y="221.477px ">a</tspan>ting Systems,<tspan x="342.871px 344.959px 351.259px " y="221.477px 221.477px 221.477px "> Al</tspan>gorithms &amp; C<tspan x="407.455px " y="221.477px ">o</tspan>mplexity<tspan x="447.505px 449.575px 451.825px " y="221.477px 221.477px 221.477px ">, D</tspan>ata S<tspan x="478.285px " y="221.477px ">t</tspan>ructur<tspan x="505.267px 510.415px 514.411px 516.481px 518.731px " y="221.477px 221.477px 221.477px 221.477px 221.477px ">es, D</tspan>atabases,</text>
                        <text x="262.687px" y="233.477px" style="font-family:'AvenirNext-Regular', 'Avenir Next', sans-serif;font-size:9px;"><tspan x="262.687px 268.987px 272.119px 274.972px " y="233.477px 233.477px 233.477px 233.477px ">Arti</tspan>ﬁcial Intelligence,<tspan x="348.331px 350.581px 356.953px " y="233.477px 233.477px 233.477px "> Co</tspan>mputer Networks,<tspan x="435.766px 438.016px " y="233.477px 233.477px "> H</tspan>uman-C<tspan x="476.941px " y="233.477px ">o</tspan>mputer Inter<tspan x="533.524px 538.33px " y="233.477px 233.477px ">ac</tspan>tion</text>
                    </g>
                    <g transform="matrix(0.802203,0,0,0.802203,163.614,358.47)">
                        <text x="0px" y="0px" style="font-family:'AvenirNext-DemiBold', 'Avenir Next', sans-serif;font-weight:600;font-size:12.466px;">U<tspan x="10.147px 21.117px 25.879px 35.265px 44.116px 53.204px 61.605px 66.367px 74.545px " y="0px 0px 0px 0px 0px 0px 0px 0px 0px ">NIVERSITY</tspan></text>
                        <text x="87.609px" y="0px" style="font-family:'AvenirNext-DemiBoldItalic', 'Avenir Next', sans-serif;font-weight:600;font-style:italic;font-size:12.466px;">o<tspan x="96.385px " y="0px ">f</tspan></text>
                        <text x="106.021px" y="0px" style="font-family:'AvenirNext-DemiBold', 'Avenir Next', sans-serif;font-weight:600;font-size:12.466px;"><tspan x="106.021px 115.794px 125.841px 133.458px 138.219px 146.609px 158.439px 167.526px 178.496px 183.258px 193.305px 197.419px 201.782px 209.025px 220.854px 229.256px 233.395px 243.442px 254.412px 265.295px 274.145px 281.762px 290.612px " y="0px 0px 0px 0px 0px 0px 0px 0px 0px 0px 0px 0px 0px 0px 0px 0px 0px 0px 0px 0px 0px 0px 0px ">CALIFORNIA, LOS ANGELES</tspan></text>
                    </g>
                </g>
            </g>
            <g id="EDU" transform="matrix(1,0,0,1,-14,1.60258)">
                <g id="_-EDUCATION-" serif:id="(EDUCATION)" transform="matrix(1.71227,0,0,1.71227,47.622,-33.1495)">
                    <text x="53.839px" y="151.16px" style="font-family:'AvenirNext-DemiBold', 'Avenir Next', sans-serif;font-weight:600;font-size:14.6px;fill:rgb(227,87,87);">E<tspan x="64.205px 76.82px 88.705px 100.151px 111.043px 120.796px 126.374px 140.23px " y="151.16px 151.16px 151.16px 151.16px 151.16px 151.16px 151.16px 151.16px ">DUCATION</tspan></text>
                </g>
                <g transform="matrix(2.14232,0,0,-0.00621522,-24.5561,220.959)">
                    <rect x="176.152" y="489.521" width="371.31" height="342.941" style="fill:rgb(227,87,87);"/>
                </g>
            </g>
            <g transform="matrix(1,0,0,1,-14,-46)">
                <g transform="matrix(1.21836,0,0,1.21836,477.645,110.462)">
                    <text x="-85.453px" y="71.905px" style="font-family:'AvenirNext-Medium', 'Avenir Next', sans-serif;font-weight:500;font-size:46.166px;">J<tspan x="-60.292px -25.114px 2.724px 31.301px 46.12px 84.068px 97.918px 141.914px " y="71.905px 71.905px 71.905px 71.905px 71.905px 71.905px 71.905px 71.905px ">USTIN MA</tspan></text>
                </g>
                <g transform="matrix(6.00663,0,0,6.00663,-697.113,-986.244)">
                    <text x="154.272px" y="201.88px" style="font-family:'AvenirNext-UltraLight', 'Avenir Next', sans-serif;font-weight:275;font-size:18.75px;fill:rgb(227,87,87);">+</text>
                </g>
                <g transform="matrix(1,0,0,1,-250.588,114.055)">
                    <text x="628.445px" y="113.852px" style="font-family:'AvenirNext-Medium', 'Avenir Next', sans-serif;font-weight:500;font-size:18.75px;">justinma98@ucla.edu</text>
                    <text x="821.627px" y="113.852px" style="font-family:'AvenirNext-Regular', 'Avenir Next', sans-serif;font-size:18.75px;">/</text>
                    <text x="837.939px" y="113.852px" style="font-family:'AvenirNext-Medium', 'Avenir Next', sans-serif;font-weight:500;font-size:18.75px;">github.com/justinma98</text>
                </g>
            </g>
        </g>
    </g>
</svg>
