<?xml version="1.0" encoding="UTF-8" standalone="no"?>
<!DOCTYPE svg PUBLIC "-//W3C//DTD SVG 1.1//EN" "http://www.w3.org/Graphics/SVG/1.1/DTD/svg11.dtd">
<svg width="100%" height="100%" viewBox="0 0 60 60" version="1.1" xmlns="http://www.w3.org/2000/svg" xmlns:xlink="http://www.w3.org/1999/xlink" xml:space="preserve" xmlns:serif="http://www.serif.com/" style="fill-rule:evenodd;clip-rule:evenodd;stroke-linejoin:round;stroke-miterlimit:2;">
    <g transform="matrix(1,0,0,1,-31.2177,0)">
        <g id="Artboard1" transform="matrix(3.34604,0,0,3.34604,-1435.54,-1015.3)">
            <rect x="438.355" y="303.434" width="17.932" height="17.932" style="fill:none;"/>
            <g transform="matrix(0.331787,0,0,0.393999,426.547,301.973)">
                <path d="M81.521,18.959L65.341,6.014L43.701,6.014L43.701,46.916L81.521,46.916L81.521,18.959Z" style="fill:white;"/>
                <path d="M65.511,4.504L65.681,4.525L65.847,4.558L66.009,4.605L66.164,4.665L66.312,4.737L66.452,4.82L66.581,4.914L82.762,17.859L82.888,17.971L82.999,18.092L83.096,18.223L83.176,18.361L83.24,18.505L83.286,18.654L83.313,18.806L83.323,18.959L83.323,46.916L83.314,47.065L83.288,47.212L83.245,47.357L83.185,47.497L83.11,47.632L83.019,47.759L82.914,47.879L82.795,47.989L82.664,48.089L82.522,48.178L82.37,48.254L82.21,48.318L82.044,48.368L81.873,48.404L81.698,48.426L81.521,48.433L43.701,48.433L43.524,48.426L43.349,48.404L43.178,48.368L43.011,48.318L42.851,48.254L42.7,48.178L42.558,48.089L42.427,47.989L42.308,47.879L42.203,47.759L42.112,47.632L42.036,47.497L41.977,47.357L41.934,47.212L41.908,47.065L41.899,46.916L41.899,6.014L41.908,5.866L41.934,5.718L41.977,5.574L42.036,5.434L42.112,5.299L42.203,5.171L42.308,5.052L42.427,4.942L42.558,4.842L42.7,4.753L42.851,4.676L43.011,4.613L43.178,4.563L43.349,4.526L43.524,4.505L43.701,4.497L65.341,4.497L65.511,4.504ZM43.701,6.014L43.701,46.916L81.521,46.916L81.521,18.959L65.341,6.014L43.701,6.014Z" style="fill:white;"/>
            </g>
            <g transform="matrix(0.29886,0,0,0.29886,429.025,303.434)">
                <path d="M64.248,3.039L64.248,19.104C64.27,19.648 64.703,20.083 65.248,20.104L82.211,20.104L82.211,56.961L40.224,56.961L40.224,3.039L64.248,3.039ZM74.654,46.244L47.106,46.244C46.11,46.296 45.201,48.144 47.106,48.244L74.654,48.244C76.038,48.171 75.785,46.412 74.758,46.249L74.654,46.244ZM75.329,37.622L47.106,37.622C46.081,37.676 45.154,39.52 47.106,39.622L75.329,39.622C76.04,39.585 76.513,38.821 76.243,38.215C76.138,37.979 76.077,37.729 75.434,37.627L75.329,37.622ZM65.471,31C66.347,30.963 66.72,30.008 66.275,29.405C66.141,29.224 66.107,29.074 65.556,29.004C59.411,28.743 53.256,29 47.106,29C46.21,29.038 45.84,30.075 46.355,30.661C46.505,30.83 46.551,30.976 47.106,31L65.471,31ZM66.248,18.104L79.797,18.104L66.248,4.555L66.248,18.104Z" style="fill:rgb(0,0,255);"/>
            </g>
        </g>
    </g>
</svg>
