<?xml version="1.0" encoding="UTF-8" standalone="no"?>
<!DOCTYPE svg PUBLIC "-//W3C//DTD SVG 1.1//EN" "http://www.w3.org/Graphics/SVG/1.1/DTD/svg11.dtd">
<svg width="100%" height="100%" viewBox="0 0 60 60" version="1.1" xmlns="http://www.w3.org/2000/svg" xmlns:xlink="http://www.w3.org/1999/xlink" xml:space="preserve" xmlns:serif="http://www.serif.com/" style="fill-rule:evenodd;clip-rule:evenodd;stroke-linecap:round;stroke-linejoin:round;stroke-miterlimit:1.5;">
    <g transform="matrix(1,0,0,1,-52.7225,0)">
        <g id="Artboard1" transform="matrix(3.34604,0,0,3.34604,-1414.03,-1015.3)">
            <rect x="438.355" y="303.434" width="17.932" height="17.932" style="fill:none;"/>
            <g transform="matrix(0.269803,-0.0539046,0,0.251374,425.178,311.32)">
                <rect x="99.696" y="19.43" width="13.027" height="28.657" style="fill:rgb(194,194,194);"/>
            </g>
            <g transform="matrix(-0.421693,-0.186387,0,0.251374,494.117,324.528)">
                <rect x="99.696" y="19.43" width="13.027" height="28.657" style="fill:rgb(128,125,124);"/>
            </g>
            <g transform="matrix(-0.421693,-0.186387,0.122647,-0.024504,491.734,329.888)">
                <rect x="99.696" y="19.43" width="13.027" height="28.657" style="fill:rgb(194,194,194);"/>
            </g>
            <g transform="matrix(0.168887,0.0763565,-0.48231,0.126166,456.66,305.597)">
                <path d="M83.232,42.201L58.995,42.349L57.909,54.311L63.441,56.248L88.89,56.274L88.143,43.921L83.232,42.201Z" style="fill:rgb(128,125,124);"/>
            </g>
            <g transform="matrix(0.29886,0,0,0.29886,422.598,303.434)">
                <path d="M79.254,39.231L79.254,16.622C79.274,16.276 79.447,15.972 79.719,15.794C79.816,15.727 79.929,15.675 80.059,15.642L91.819,13.292C91.935,13.275 91.858,13.263 92.124,13.279C92.319,13.31 92.36,13.336 92.419,13.358L110.8,21.482C110.855,21.51 110.906,21.543 110.952,21.578C111.214,21.757 111.379,22.049 111.396,22.397L111.396,46.501C111.372,46.984 111.062,47.363 110.592,47.481L98.831,49.831C98.723,49.847 98.616,49.846 98.514,49.829C98.42,49.821 98.325,49.8 98.231,49.765L93.902,47.851L93.902,48.297C93.863,49.016 93.494,49.151 93.169,49.26L73.655,54.666C73.232,54.757 73.183,54.693 72.974,54.613L58.634,48.1C58.124,47.832 58.079,47.737 58.048,47.19L58.048,44.959C58.084,44.313 58.322,44.134 58.815,43.986L78.734,39.214C78.856,39.191 78.775,39.18 79.057,39.19C79.107,39.197 79.15,39.198 79.254,39.231ZM60.048,45.747L60.048,46.546L73.471,52.642L91.902,47.536L91.902,46.969L78.873,41.237C72.598,42.74 66.323,44.244 60.048,45.747ZM109.396,23.617L108.778,23.74L99.635,25.567L99.635,47.631L109.396,45.681L109.396,23.617ZM81.254,18.158L81.254,40.075L97.635,47.315L97.635,25.398L91.097,22.508L81.254,18.158ZM83.547,16.984L91.905,20.679L98.75,23.704L107.103,22.035L91.9,15.315L83.547,16.984Z" style="fill:white;"/>
            </g>
            <g transform="matrix(0.0656101,-0.0184945,0.0497922,0.295866,438.021,302.151)">
                <path d="M94.77,42.256L60.975,42.256L47.649,53.939L62.694,56.433L94.77,56.433L94.77,42.256Z" style="fill:rgb(128,125,124);"/>
            </g>
            <g transform="matrix(0.0656101,-0.0184945,0.0497922,0.295866,438.021,302.151)">
                <path d="M95.697,41.305C97.739,41.474 99.097,41.897 99.18,42.364L99.18,56.541C99.094,57.044 97.467,57.415 95.245,57.435L63.169,57.435C62.171,57.426 61.214,57.353 60.355,57.22L45.311,54.726C43.733,54.445 42.972,54.013 43.371,53.592L56.697,41.909C57.214,41.522 58.635,41.271 60.499,41.255L94.294,41.255C95,41.261 95,41.261 95.697,41.305ZM64.505,43.258L52.706,53.602L63.737,55.431L90.36,55.431L90.36,43.258C81.742,43.258 73.123,43.258 64.505,43.258Z" style="fill:white;"/>
            </g>
            <g transform="matrix(0.265798,-0.0615431,0.0406623,0.294463,423.957,308.857)">
                <path d="M95.068,7.846L55.936,5.536L55.936,35.639L96.616,35.639L95.068,7.846Z" style="fill:rgb(194,194,194);stroke:white;stroke-width:2.2px;"/>
            </g>
            <g transform="matrix(0.211071,-0.0488715,0.0310827,0.22509,428.326,309.302)">
                <path d="M95.068,7.846L55.936,5.536L55.936,35.639L96.616,35.639L95.068,7.846Z" style="fill:rgb(0,0,255);"/>
            </g>
            <g transform="matrix(0.29886,0,0,0.29886,422.652,304.789)">
                <path d="M101.505,24.173L107.164,23.043" style="fill:none;stroke:white;stroke-width:2px;"/>
            </g>
            <g transform="matrix(0.29886,0,0,0.29886,422.652,306.162)">
                <path d="M101.505,24.173L107.164,23.043" style="fill:none;stroke:white;stroke-width:2px;"/>
            </g>
        </g>
    </g>
</svg>
