<?xml version="1.0" encoding="UTF-8" standalone="no"?>
<!DOCTYPE svg PUBLIC "-//W3C//DTD SVG 1.1//EN" "http://www.w3.org/Graphics/SVG/1.1/DTD/svg11.dtd">
<svg width="100%" height="100%" viewBox="0 0 60 60" version="1.1" xmlns="http://www.w3.org/2000/svg" xmlns:xlink="http://www.w3.org/1999/xlink" xml:space="preserve" xmlns:serif="http://www.serif.com/" style="fill-rule:evenodd;clip-rule:evenodd;stroke-linejoin:round;stroke-miterlimit:2;">
    <g transform="matrix(1,0,0,1,-126.795,-72.2924)">
        <g id="Artboard1" transform="matrix(3.34604,0,0,3.34604,-1339.96,-943.012)">
            <rect x="438.355" y="303.434" width="17.932" height="17.932" style="fill:none;"/>
            <g transform="matrix(0.526012,0,0,0.526012,368.274,292.044)">
                <path d="M151.571,51.826C149.251,51.826 147.183,51.322 145.368,50.313C143.553,49.304 142.128,47.855 141.094,45.964C140.06,44.072 139.544,41.841 139.544,39.269C139.544,36.664 140.031,34.386 141.006,32.436C141.981,30.486 143.334,28.986 145.065,27.935C146.797,26.885 148.755,26.36 150.94,26.36C152.873,26.36 154.617,26.809 156.172,27.709C157.727,28.608 158.958,29.944 159.866,31.718C160.774,33.491 161.228,35.63 161.228,38.135C161.228,38.538 161.194,39.109 161.127,39.849L161.076,40.555L145.267,40.555C145.519,42.757 146.208,44.417 147.335,45.535C148.461,46.653 149.806,47.212 151.369,47.212C152.478,47.212 153.596,46.955 154.722,46.443C155.849,45.93 156.773,45.211 157.496,44.287L160.698,47.489C158.261,50.38 155.218,51.826 151.571,51.826ZM155.454,36.319C155.454,35.311 155.256,34.378 154.861,33.52C154.466,32.663 153.903,31.978 153.172,31.465C152.441,30.953 151.596,30.696 150.638,30.696C149.226,30.696 148.058,31.205 147.133,32.222C146.208,33.239 145.654,34.605 145.469,36.319L155.454,36.319Z" style="fill:rgb(54,160,216);fill-rule:nonzero;"/>
                <path d="M151.039,25.224L151.138,25.225L151.236,25.227L151.334,25.229L151.432,25.232L151.529,25.236L151.627,25.241L151.724,25.246L151.821,25.253L151.918,25.259L152.014,25.267L152.11,25.275L152.206,25.284L152.302,25.294L152.397,25.305L152.493,25.316L152.588,25.328L152.682,25.341L152.777,25.354L152.871,25.368L152.965,25.383L153.059,25.399L153.152,25.415L153.245,25.433L153.338,25.45L153.431,25.469L153.524,25.488L153.616,25.509L153.708,25.529L153.799,25.551L153.891,25.573L153.982,25.596L154.073,25.62L154.163,25.645L154.253,25.67L154.343,25.696L154.433,25.723L154.523,25.751L154.612,25.779L154.701,25.808L154.789,25.838L154.877,25.868L154.965,25.899L155.053,25.931L155.14,25.964L155.228,25.997L155.314,26.032L155.401,26.067L155.487,26.102L155.573,26.139L155.658,26.176L155.743,26.214L155.828,26.252L155.913,26.292L155.997,26.332L156.081,26.372L156.165,26.414L156.248,26.456L156.331,26.499L156.414,26.543L156.496,26.587L156.578,26.632L156.66,26.678L156.741,26.725L156.823,26.773L156.904,26.821L156.985,26.871L157.066,26.921L157.145,26.972L157.225,27.023L157.304,27.075L157.382,27.128L157.46,27.182L157.537,27.237L157.613,27.292L157.69,27.348L157.765,27.404L157.84,27.462L157.915,27.52L157.989,27.579L158.062,27.638L158.135,27.698L158.208,27.759L158.279,27.821L158.351,27.883L158.421,27.946L158.492,28.01L158.561,28.075L158.63,28.14L158.699,28.206L158.766,28.272L158.834,28.339L158.901,28.407L158.967,28.476L159.032,28.545L159.098,28.615L159.162,28.686L159.226,28.757L159.289,28.829L159.352,28.902L159.414,28.975L159.476,29.049L159.537,29.124L159.598,29.199L159.657,29.275L159.717,29.352L159.776,29.429L159.834,29.507L159.891,29.586L159.948,29.665L160.005,29.745L160.061,29.826L160.116,29.907L160.171,29.988L160.225,30.071L160.279,30.154L160.332,30.238L160.384,30.322L160.436,30.407L160.487,30.493L160.538,30.579L160.588,30.666L160.638,30.753L160.687,30.841L160.736,30.93L160.783,31.019L160.831,31.109L160.878,31.2L160.924,31.292L160.97,31.385L161.016,31.479L161.06,31.573L161.104,31.667L161.147,31.763L161.189,31.858L161.231,31.954L161.271,32.051L161.311,32.148L161.35,32.246L161.389,32.344L161.427,32.443L161.463,32.543L161.5,32.642L161.535,32.743L161.57,32.843L161.603,32.945L161.637,33.047L161.669,33.149L161.701,33.252L161.731,33.355L161.762,33.459L161.791,33.563L161.819,33.668L161.847,33.774L161.874,33.879L161.901,33.986L161.926,34.093L161.951,34.2L161.975,34.308L161.999,34.416L162.022,34.525L162.043,34.634L162.065,34.744L162.085,34.854L162.105,34.965L162.124,35.076L162.142,35.188L162.16,35.3L162.176,35.412L162.192,35.525L162.208,35.639L162.222,35.753L162.236,35.868L162.249,35.983L162.262,36.098L162.273,36.214L162.285,36.331L162.295,36.448L162.304,36.565L162.313,36.683L162.321,36.801L162.329,36.92L162.335,37.039L162.341,37.159L162.347,37.279L162.351,37.4L162.355,37.521L162.358,37.643L162.361,37.765L162.363,37.888L162.364,38.011L162.364,38.136L162.364,38.223L162.362,38.315L162.36,38.41L162.357,38.508L162.353,38.609L162.349,38.713L162.343,38.821L162.337,38.932L162.33,39.047L162.322,39.166L162.313,39.288L162.304,39.413L162.294,39.542L162.283,39.675L162.271,39.812L162.26,39.94L162.21,40.636L162.197,40.742L162.175,40.846L162.143,40.947L162.101,41.045L162.051,41.139L161.992,41.228L161.925,41.311L161.851,41.387L161.77,41.456L161.682,41.516L161.59,41.569L161.492,41.613L161.392,41.647L161.288,41.672L161.183,41.686L161.076,41.691L146.608,41.691L146.623,41.754L146.642,41.836L146.662,41.916L146.683,41.996L146.704,42.075L146.725,42.152L146.747,42.229L146.77,42.305L146.793,42.38L146.817,42.454L146.841,42.528L146.865,42.6L146.89,42.672L146.916,42.742L146.942,42.812L146.968,42.881L146.995,42.949L147.023,43.016L147.051,43.082L147.079,43.147L147.108,43.212L147.137,43.275L147.167,43.338L147.197,43.4L147.228,43.461L147.259,43.521L147.29,43.581L147.322,43.639L147.355,43.697L147.387,43.754L147.421,43.81L147.454,43.865L147.489,43.92L147.523,43.973L147.558,44.026L147.594,44.078L147.629,44.129L147.666,44.18L147.703,44.23L147.74,44.279L147.777,44.327L147.815,44.374L147.854,44.421L147.893,44.467L147.932,44.512L147.972,44.557L148.012,44.601L148.053,44.644L148.094,44.687L148.136,44.729L148.179,44.772L148.224,44.814L148.268,44.856L148.313,44.897L148.357,44.937L148.402,44.976L148.447,45.015L148.492,45.053L148.537,45.09L148.583,45.126L148.628,45.162L148.674,45.196L148.72,45.23L148.766,45.264L148.812,45.296L148.858,45.328L148.905,45.359L148.952,45.39L148.998,45.419L149.045,45.448L149.092,45.477L149.14,45.504L149.187,45.531L149.235,45.557L149.283,45.583L149.331,45.608L149.379,45.632L149.428,45.656L149.477,45.678L149.525,45.701L149.575,45.722L149.624,45.743L149.674,45.763L149.724,45.783L149.774,45.802L149.824,45.82L149.875,45.838L149.926,45.855L149.977,45.871L150.029,45.887L150.08,45.902L150.133,45.917L150.185,45.931L150.238,45.944L150.291,45.957L150.344,45.969L150.398,45.98L150.452,45.991L150.506,46.001L150.561,46.01L150.616,46.019L150.672,46.028L150.728,46.035L150.784,46.042L150.841,46.048L150.898,46.054L150.955,46.059L151.013,46.063L151.071,46.067L151.13,46.07L151.189,46.072L151.249,46.074L151.309,46.075L151.368,46.075L151.457,46.075L151.544,46.073L151.632,46.07L151.72,46.065L151.808,46.059L151.896,46.052L151.984,46.044L152.073,46.035L152.161,46.024L152.25,46.012L152.339,45.998L152.428,45.984L152.517,45.968L152.606,45.95L152.696,45.932L152.785,45.912L152.875,45.89L152.965,45.868L153.056,45.844L153.146,45.819L153.237,45.792L153.328,45.764L153.419,45.735L153.511,45.704L153.603,45.672L153.695,45.639L153.787,45.604L153.879,45.567L153.972,45.53L154.065,45.491L154.158,45.45L154.251,45.409L154.342,45.366L154.432,45.323L154.52,45.279L154.608,45.234L154.694,45.188L154.778,45.142L154.862,45.094L154.944,45.045L155.026,44.996L155.106,44.945L155.185,44.894L155.263,44.841L155.339,44.788L155.415,44.733L155.49,44.678L155.563,44.622L155.636,44.565L155.707,44.507L155.777,44.447L155.847,44.387L155.915,44.326L155.982,44.264L156.048,44.201L156.114,44.137L156.178,44.072L156.241,44.006L156.303,43.939L156.365,43.87L156.425,43.801L156.485,43.731L156.543,43.659L156.606,43.58L156.676,43.5L156.753,43.427L156.837,43.361L156.926,43.304L157.021,43.255L157.119,43.215L157.221,43.184L157.325,43.163L157.431,43.152L157.537,43.151L157.643,43.16L157.748,43.179L157.851,43.207L157.95,43.245L158.045,43.292L158.136,43.348L158.221,43.412L158.299,43.483L161.502,46.685L161.573,46.764L161.636,46.848L161.692,46.938L161.739,47.033L161.777,47.131L161.805,47.233L161.824,47.337L161.834,47.442L161.833,47.548L161.823,47.653L161.802,47.757L161.773,47.858L161.734,47.957L161.686,48.051L161.629,48.14L161.565,48.224L161.505,48.294L161.444,48.366L161.382,48.437L161.319,48.508L161.257,48.579L161.194,48.649L161.131,48.718L161.067,48.787L161.004,48.855L160.94,48.923L160.875,48.99L160.811,49.057L160.746,49.123L160.681,49.188L160.616,49.254L160.55,49.318L160.484,49.382L160.418,49.446L160.351,49.509L160.285,49.571L160.218,49.633L160.15,49.694L160.083,49.755L160.015,49.815L159.947,49.875L159.878,49.934L159.81,49.993L159.741,50.051L159.671,50.108L159.602,50.165L159.532,50.222L159.462,50.277L159.392,50.333L159.321,50.387L159.25,50.442L159.179,50.495L159.107,50.548L159.035,50.601L158.963,50.653L158.891,50.704L158.819,50.755L158.746,50.805L158.673,50.855L158.599,50.904L158.526,50.953L158.452,51.001L158.378,51.048L158.303,51.095L158.228,51.142L158.153,51.187L158.078,51.233L158.003,51.277L157.927,51.321L157.851,51.365L157.774,51.408L157.698,51.45L157.621,51.492L157.544,51.533L157.467,51.574L157.389,51.614L157.311,51.653L157.233,51.692L157.155,51.73L157.076,51.768L156.997,51.805L156.918,51.842L156.839,51.878L156.759,51.913L156.679,51.948L156.599,51.982L156.518,52.016L156.438,52.049L156.357,52.081L156.276,52.113L156.195,52.144L156.113,52.175L156.031,52.205L155.949,52.235L155.867,52.264L155.784,52.292L155.701,52.32L155.618,52.347L155.535,52.373L155.452,52.399L155.368,52.425L155.284,52.45L155.2,52.474L155.116,52.498L155.031,52.521L154.946,52.543L154.861,52.565L154.776,52.586L154.691,52.607L154.605,52.627L154.519,52.647L154.433,52.665L154.347,52.684L154.26,52.702L154.173,52.719L154.086,52.735L153.999,52.751L153.912,52.767L153.824,52.781L153.737,52.796L153.649,52.809L153.56,52.822L153.472,52.835L153.383,52.847L153.295,52.858L153.206,52.869L153.116,52.879L153.027,52.888L152.937,52.897L152.848,52.906L152.758,52.913L152.667,52.921L152.577,52.927L152.487,52.933L152.396,52.939L152.305,52.944L152.214,52.948L152.122,52.952L152.031,52.955L151.939,52.958L151.847,52.96L151.755,52.961L151.663,52.962L151.571,52.962L151.454,52.962L151.338,52.961L151.223,52.959L151.107,52.956L150.992,52.952L150.878,52.948L150.763,52.943L150.649,52.937L150.535,52.93L150.422,52.922L150.309,52.914L150.196,52.905L150.084,52.895L149.972,52.884L149.86,52.873L149.748,52.86L149.637,52.847L149.526,52.833L149.416,52.818L149.306,52.802L149.196,52.786L149.087,52.769L148.978,52.751L148.869,52.732L148.76,52.712L148.652,52.692L148.545,52.67L148.437,52.648L148.33,52.625L148.223,52.602L148.117,52.577L148.011,52.552L147.905,52.525L147.8,52.498L147.695,52.47L147.591,52.442L147.486,52.412L147.382,52.382L147.279,52.351L147.176,52.319L147.073,52.286L146.971,52.252L146.869,52.218L146.767,52.183L146.666,52.147L146.565,52.11L146.464,52.072L146.364,52.034L146.265,51.994L146.165,51.954L146.066,51.913L145.968,51.871L145.87,51.829L145.772,51.785L145.674,51.741L145.577,51.696L145.481,51.65L145.385,51.603L145.289,51.556L145.194,51.508L145.099,51.458L145.004,51.409L144.91,51.358L144.816,51.306L144.723,51.254L144.63,51.201L144.538,51.147L144.446,51.092L144.355,51.037L144.265,50.981L144.175,50.924L144.085,50.866L143.997,50.808L143.909,50.749L143.821,50.689L143.734,50.628L143.648,50.567L143.562,50.505L143.477,50.442L143.393,50.379L143.309,50.315L143.226,50.25L143.143,50.184L143.061,50.118L142.98,50.051L142.899,49.983L142.819,49.915L142.74,49.845L142.661,49.775L142.583,49.705L142.505,49.633L142.429,49.561L142.352,49.488L142.277,49.415L142.202,49.341L142.128,49.266L142.054,49.19L141.981,49.114L141.908,49.037L141.837,48.959L141.766,48.88L141.695,48.801L141.626,48.722L141.557,48.641L141.488,48.56L141.42,48.478L141.353,48.395L141.287,48.312L141.221,48.228L141.156,48.144L141.091,48.058L141.028,47.973L140.964,47.886L140.902,47.799L140.84,47.711L140.779,47.622L140.719,47.533L140.659,47.443L140.6,47.353L140.541,47.261L140.483,47.17L140.426,47.077L140.37,46.984L140.314,46.89L140.259,46.796L140.204,46.701L140.15,46.605L140.097,46.508L140.044,46.411L139.992,46.312L139.941,46.214L139.891,46.114L139.841,46.014L139.792,45.914L139.745,45.813L139.698,45.711L139.651,45.609L139.606,45.507L139.562,45.404L139.518,45.3L139.475,45.196L139.433,45.092L139.392,44.987L139.352,44.881L139.313,44.775L139.274,44.669L139.237,44.562L139.2,44.455L139.164,44.347L139.129,44.238L139.095,44.129L139.061,44.02L139.029,43.91L138.997,43.8L138.966,43.689L138.936,43.578L138.907,43.466L138.878,43.354L138.851,43.241L138.824,43.128L138.798,43.015L138.773,42.9L138.749,42.786L138.726,42.671L138.703,42.555L138.682,42.44L138.661,42.323L138.641,42.206L138.622,42.089L138.603,41.971L138.586,41.853L138.569,41.735L138.553,41.616L138.538,41.496L138.524,41.376L138.511,41.256L138.498,41.135L138.486,41.014L138.475,40.892L138.465,40.77L138.456,40.647L138.448,40.524L138.44,40.401L138.433,40.277L138.427,40.152L138.422,40.027L138.417,39.902L138.414,39.776L138.411,39.65L138.409,39.524L138.408,39.397L138.407,39.269L138.408,39.141L138.409,39.012L138.411,38.885L138.413,38.758L138.417,38.631L138.421,38.504L138.426,38.378L138.431,38.253L138.438,38.128L138.445,38.003L138.453,37.879L138.462,37.755L138.471,37.631L138.481,37.508L138.492,37.386L138.504,37.264L138.517,37.142L138.53,37.021L138.544,36.9L138.559,36.78L138.575,36.66L138.591,36.54L138.608,36.421L138.626,36.302L138.645,36.184L138.665,36.066L138.685,35.949L138.706,35.832L138.728,35.716L138.75,35.6L138.774,35.484L138.798,35.369L138.823,35.254L138.849,35.14L138.875,35.026L138.903,34.913L138.931,34.8L138.96,34.688L138.989,34.576L139.02,34.464L139.051,34.353L139.083,34.243L139.116,34.132L139.15,34.023L139.184,33.913L139.219,33.805L139.255,33.696L139.292,33.589L139.33,33.481L139.368,33.374L139.408,33.268L139.448,33.162L139.488,33.056L139.53,32.951L139.572,32.847L139.616,32.743L139.659,32.639L139.704,32.536L139.75,32.434L139.796,32.332L139.843,32.23L139.891,32.129L139.94,32.028L139.99,31.928L140.04,31.829L140.09,31.731L140.141,31.633L140.193,31.536L140.246,31.44L140.299,31.344L140.353,31.249L140.407,31.154L140.462,31.061L140.518,30.967L140.574,30.875L140.632,30.783L140.689,30.692L140.748,30.601L140.807,30.512L140.866,30.422L140.926,30.334L140.987,30.246L141.049,30.159L141.111,30.072L141.174,29.987L141.238,29.901L141.302,29.817L141.367,29.733L141.432,29.65L141.498,29.568L141.565,29.486L141.632,29.405L141.7,29.324L141.769,29.245L141.838,29.166L141.908,29.088L141.979,29.01L142.05,28.933L142.122,28.857L142.194,28.781L142.268,28.707L142.341,28.633L142.416,28.559L142.491,28.487L142.567,28.415L142.643,28.344L142.72,28.273L142.797,28.204L142.875,28.135L142.954,28.066L143.034,27.999L143.114,27.932L143.194,27.866L143.276,27.801L143.357,27.736L143.44,27.672L143.523,27.609L143.607,27.547L143.691,27.485L143.776,27.424L143.861,27.364L143.947,27.305L144.034,27.246L144.121,27.188L144.209,27.131L144.297,27.075L144.386,27.019L144.476,26.964L144.566,26.91L144.656,26.857L144.747,26.805L144.838,26.753L144.929,26.702L145.021,26.653L145.113,26.604L145.206,26.556L145.299,26.508L145.392,26.462L145.486,26.416L145.58,26.371L145.674,26.328L145.769,26.285L145.865,26.242L145.96,26.201L146.056,26.161L146.152,26.121L146.249,26.082L146.346,26.044L146.444,26.007L146.541,25.971L146.64,25.936L146.738,25.901L146.837,25.867L146.936,25.835L147.036,25.803L147.135,25.772L147.236,25.741L147.336,25.712L147.437,25.684L147.538,25.656L147.64,25.629L147.742,25.603L147.844,25.578L147.946,25.554L148.049,25.531L148.152,25.508L148.256,25.487L148.36,25.466L148.464,25.446L148.568,25.427L148.673,25.409L148.778,25.392L148.883,25.375L148.989,25.359L149.095,25.345L149.201,25.331L149.308,25.318L149.414,25.306L149.522,25.294L149.629,25.284L149.737,25.274L149.845,25.265L149.953,25.257L150.062,25.25L150.17,25.244L150.28,25.238L150.389,25.234L150.499,25.23L150.609,25.227L150.719,25.225L150.829,25.224L150.94,25.223L151.039,25.224ZM150.838,26.36L150.736,26.361L150.635,26.363L150.533,26.366L150.432,26.369L150.332,26.373L150.231,26.378L150.132,26.384L150.032,26.391L149.933,26.398L149.834,26.406L149.735,26.415L149.637,26.425L149.539,26.435L149.441,26.446L149.344,26.458L149.247,26.471L149.15,26.484L149.054,26.498L148.958,26.513L148.863,26.529L148.767,26.546L148.672,26.563L148.578,26.581L148.483,26.6L148.389,26.62L148.296,26.64L148.203,26.661L148.11,26.683L148.017,26.706L147.925,26.729L147.833,26.754L147.741,26.779L147.65,26.804L147.559,26.831L147.468,26.858L147.378,26.886L147.288,26.915L147.198,26.945L147.109,26.975L147.02,27.006L146.931,27.038L146.843,27.071L146.755,27.104L146.667,27.139L146.58,27.174L146.493,27.209L146.407,27.246L146.32,27.283L146.234,27.321L146.149,27.36L146.063,27.4L145.978,27.44L145.894,27.481L145.809,27.523L145.725,27.566L145.642,27.61L145.558,27.654L145.475,27.699L145.393,27.745L145.31,27.791L145.228,27.839L145.147,27.887L145.065,27.935L144.985,27.985L144.904,28.035L144.824,28.086L144.745,28.138L144.667,28.19L144.588,28.243L144.511,28.296L144.434,28.351L144.357,28.405L144.282,28.461L144.206,28.517L144.131,28.574L144.057,28.631L143.984,28.689L143.91,28.748L143.838,28.808L143.766,28.868L143.694,28.929L143.623,28.99L143.553,29.052L143.483,29.115L143.414,29.178L143.345,29.242L143.277,29.307L143.21,29.372L143.143,29.439L143.076,29.505L143.01,29.573L142.945,29.641L142.88,29.709L142.816,29.779L142.752,29.849L142.689,29.919L142.626,29.991L142.564,30.063L142.503,30.135L142.442,30.208L142.381,30.282L142.322,30.357L142.262,30.432L142.204,30.508L142.145,30.585L142.088,30.662L142.031,30.74L141.974,30.818L141.918,30.898L141.863,30.978L141.808,31.058L141.754,31.139L141.7,31.221L141.647,31.304L141.594,31.387L141.542,31.471L141.491,31.555L141.44,31.64L141.389,31.726L141.339,31.813L141.29,31.9L141.241,31.987L141.193,32.076L141.146,32.165L141.098,32.255L141.052,32.345L141.006,32.436L140.961,32.528L140.916,32.62L140.872,32.713L140.829,32.806L140.786,32.899L140.745,32.993L140.704,33.088L140.663,33.183L140.624,33.278L140.585,33.374L140.546,33.471L140.509,33.568L140.472,33.665L140.436,33.763L140.401,33.861L140.366,33.96L140.332,34.059L140.299,34.159L140.267,34.259L140.235,34.36L140.204,34.461L140.173,34.563L140.144,34.665L140.115,34.768L140.087,34.871L140.059,34.975L140.032,35.079L140.006,35.184L139.981,35.289L139.956,35.394L139.932,35.5L139.909,35.607L139.887,35.714L139.865,35.821L139.844,35.929L139.823,36.038L139.804,36.147L139.785,36.256L139.767,36.366L139.749,36.476L139.732,36.587L139.716,36.699L139.701,36.81L139.686,36.923L139.672,37.035L139.659,37.149L139.647,37.262L139.635,37.377L139.624,37.491L139.614,37.606L139.604,37.722L139.595,37.838L139.587,37.955L139.579,38.072L139.572,38.189L139.566,38.308L139.561,38.426L139.556,38.545L139.553,38.665L139.549,38.785L139.547,38.905L139.545,39.026L139.544,39.147L139.544,39.269L139.544,39.389L139.545,39.509L139.547,39.629L139.55,39.747L139.553,39.866L139.557,39.984L139.562,40.101L139.568,40.218L139.574,40.334L139.581,40.45L139.589,40.565L139.598,40.68L139.608,40.794L139.618,40.908L139.629,41.021L139.64,41.134L139.653,41.247L139.666,41.358L139.68,41.47L139.695,41.581L139.711,41.691L139.727,41.801L139.744,41.91L139.762,42.019L139.78,42.127L139.799,42.235L139.82,42.342L139.84,42.449L139.862,42.556L139.884,42.661L139.907,42.767L139.931,42.872L139.956,42.976L139.981,43.08L140.007,43.183L140.034,43.286L140.062,43.388L140.09,43.49L140.119,43.592L140.149,43.692L140.18,43.793L140.211,43.893L140.244,43.992L140.277,44.091L140.31,44.189L140.345,44.287L140.38,44.385L140.416,44.481L140.453,44.578L140.49,44.674L140.528,44.769L140.567,44.864L140.607,44.958L140.648,45.052L140.689,45.146L140.731,45.238L140.774,45.331L140.817,45.423L140.861,45.514L140.906,45.605L140.952,45.695L140.999,45.785L141.046,45.875L141.094,45.964L141.143,46.052L141.192,46.14L141.242,46.227L141.293,46.313L141.344,46.399L141.395,46.484L141.447,46.568L141.5,46.652L141.554,46.735L141.607,46.818L141.662,46.899L141.717,46.981L141.773,47.061L141.829,47.141L141.886,47.22L141.943,47.299L142.001,47.377L142.059,47.454L142.118,47.531L142.178,47.607L142.238,47.683L142.299,47.757L142.36,47.831L142.422,47.905L142.485,47.978L142.548,48.05L142.611,48.121L142.675,48.192L142.74,48.262L142.806,48.332L142.872,48.401L142.938,48.469L143.005,48.537L143.073,48.604L143.141,48.67L143.21,48.736L143.279,48.801L143.349,48.865L143.419,48.929L143.491,48.992L143.562,49.055L143.634,49.116L143.707,49.178L143.781,49.238L143.855,49.298L143.929,49.357L144.004,49.416L144.08,49.474L144.156,49.531L144.233,49.588L144.31,49.644L144.388,49.699L144.467,49.754L144.546,49.808L144.625,49.861L144.706,49.914L144.786,49.966L144.868,50.018L144.95,50.068L145.032,50.119L145.115,50.168L145.199,50.217L145.283,50.265L145.368,50.313L145.453,50.36L145.539,50.406L145.625,50.451L145.711,50.496L145.798,50.54L145.885,50.583L145.973,50.626L146.061,50.668L146.149,50.709L146.237,50.749L146.326,50.788L146.416,50.827L146.505,50.865L146.596,50.902L146.686,50.939L146.777,50.975L146.868,51.01L146.96,51.044L147.052,51.078L147.144,51.111L147.237,51.143L147.33,51.174L147.423,51.205L147.517,51.235L147.611,51.264L147.705,51.292L147.8,51.32L147.896,51.347L147.991,51.373L148.087,51.399L148.184,51.424L148.28,51.448L148.377,51.471L148.475,51.493L148.573,51.515L148.671,51.536L148.769,51.557L148.868,51.576L148.968,51.595L149.067,51.613L149.167,51.63L149.268,51.647L149.369,51.663L149.47,51.678L149.571,51.692L149.673,51.706L149.776,51.719L149.878,51.731L149.981,51.743L150.085,51.753L150.188,51.763L150.292,51.773L150.397,51.781L150.502,51.789L150.607,51.796L150.713,51.802L150.819,51.808L150.925,51.812L151.032,51.817L151.139,51.82L151.246,51.822L151.354,51.824L151.462,51.825L151.571,51.826L151.656,51.826L151.741,51.825L151.826,51.823L151.911,51.822L151.995,51.819L152.08,51.816L152.164,51.813L152.248,51.809L152.331,51.804L152.415,51.799L152.498,51.794L152.581,51.788L152.663,51.781L152.746,51.774L152.828,51.766L152.91,51.758L152.992,51.749L153.074,51.74L153.155,51.73L153.236,51.72L153.317,51.709L153.398,51.698L153.478,51.686L153.559,51.673L153.639,51.66L153.719,51.647L153.798,51.633L153.878,51.618L153.957,51.603L154.036,51.588L154.114,51.571L154.193,51.555L154.271,51.538L154.349,51.52L154.427,51.502L154.505,51.483L154.582,51.463L154.659,51.444L154.736,51.423L154.813,51.402L154.89,51.381L154.966,51.359L155.042,51.336L155.118,51.313L155.193,51.29L155.269,51.266L155.344,51.241L155.419,51.216L155.494,51.19L155.568,51.164L155.643,51.137L155.717,51.11L155.79,51.082L155.864,51.054L155.938,51.025L156.011,50.996L156.084,50.966L156.156,50.935L156.229,50.904L156.301,50.873L156.373,50.841L156.445,50.808L156.517,50.775L156.588,50.742L156.659,50.707L156.73,50.673L156.801,50.638L156.872,50.602L156.942,50.566L157.012,50.529L157.082,50.491L157.152,50.454L157.221,50.415L157.29,50.376L157.359,50.337L157.428,50.297L157.497,50.256L157.565,50.215L157.633,50.174L157.701,50.132L157.768,50.089L157.836,50.046L157.903,50.002L157.97,49.958L158.037,49.913L158.103,49.868L158.17,49.822L158.236,49.776L158.302,49.729L158.367,49.682L158.433,49.634L158.498,49.585L158.563,49.536L158.628,49.487L158.692,49.437L158.757,49.386L158.821,49.335L158.885,49.284L158.948,49.231L159.012,49.179L159.075,49.126L159.138,49.072L159.201,49.018L159.263,48.963L159.326,48.907L159.388,48.852L159.45,48.795L159.511,48.738L159.573,48.681L159.634,48.623L159.695,48.564L159.756,48.505L159.816,48.446L159.877,48.386L159.937,48.325L159.997,48.264L160.056,48.202L160.116,48.14L160.175,48.077L160.234,48.014L160.293,47.95L160.351,47.886L160.41,47.821L160.468,47.756L160.526,47.69L160.583,47.623L160.641,47.556L160.698,47.489L157.496,44.287L157.428,44.373L157.358,44.458L157.287,44.541L157.215,44.624L157.142,44.705L157.068,44.785L156.993,44.864L156.916,44.942L156.838,45.018L156.759,45.093L156.679,45.167L156.598,45.24L156.515,45.312L156.431,45.382L156.347,45.451L156.26,45.519L156.173,45.586L156.085,45.651L155.995,45.716L155.904,45.779L155.812,45.841L155.719,45.902L155.625,45.961L155.529,46.019L155.433,46.077L155.335,46.132L155.236,46.187L155.135,46.241L155.034,46.293L154.931,46.344L154.827,46.394L154.722,46.443L154.617,46.49L154.511,46.536L154.406,46.58L154.3,46.623L154.195,46.664L154.09,46.704L153.985,46.742L153.879,46.779L153.774,46.814L153.669,46.848L153.564,46.88L153.459,46.911L153.354,46.941L153.249,46.968L153.144,46.995L153.039,47.019L152.935,47.043L152.83,47.064L152.725,47.085L152.621,47.103L152.516,47.121L152.412,47.137L152.307,47.151L152.203,47.164L152.098,47.175L151.994,47.185L151.89,47.193L151.785,47.2L151.681,47.205L151.577,47.209L151.473,47.211L151.369,47.212L151.296,47.211L151.223,47.21L151.151,47.208L151.078,47.205L151.007,47.201L150.935,47.197L150.864,47.192L150.793,47.185L150.722,47.178L150.652,47.171L150.582,47.162L150.513,47.153L150.443,47.142L150.374,47.131L150.306,47.12L150.237,47.107L150.169,47.093L150.102,47.079L150.034,47.064L149.967,47.048L149.901,47.031L149.834,47.013L149.768,46.995L149.702,46.976L149.637,46.956L149.572,46.935L149.507,46.913L149.443,46.891L149.378,46.867L149.315,46.843L149.251,46.818L149.188,46.792L149.125,46.766L149.063,46.738L149,46.71L148.938,46.681L148.877,46.651L148.815,46.62L148.755,46.589L148.694,46.557L148.634,46.523L148.574,46.49L148.514,46.455L148.455,46.419L148.396,46.383L148.337,46.345L148.278,46.307L148.22,46.268L148.163,46.229L148.105,46.188L148.048,46.147L147.991,46.105L147.935,46.062L147.879,46.018L147.823,45.973L147.767,45.928L147.712,45.882L147.657,45.835L147.603,45.787L147.548,45.738L147.495,45.688L147.441,45.638L147.388,45.587L147.335,45.535L147.282,45.482L147.23,45.428L147.179,45.374L147.129,45.319L147.079,45.263L147.029,45.206L146.981,45.149L146.933,45.09L146.886,45.031L146.839,44.971L146.793,44.91L146.747,44.849L146.703,44.787L146.658,44.723L146.615,44.66L146.572,44.595L146.53,44.529L146.488,44.463L146.447,44.396L146.407,44.328L146.367,44.259L146.328,44.19L146.29,44.12L146.252,44.049L146.215,43.977L146.179,43.904L146.143,43.831L146.108,43.756L146.073,43.681L146.039,43.606L146.006,43.529L145.973,43.452L145.941,43.373L145.91,43.294L145.879,43.215L145.849,43.134L145.82,43.053L145.791,42.97L145.763,42.887L145.735,42.804L145.708,42.719L145.682,42.634L145.657,42.548L145.632,42.461L145.607,42.373L145.584,42.284L145.561,42.195L145.538,42.105L145.516,42.014L145.495,41.922L145.475,41.83L145.455,41.737L145.436,41.642L145.417,41.548L145.399,41.452L145.382,41.355L145.366,41.258L145.35,41.16L145.334,41.061L145.32,40.962L145.306,40.861L145.292,40.76L145.279,40.658L145.267,40.555L161.076,40.555L161.127,39.849L161.139,39.712L161.15,39.58L161.161,39.451L161.171,39.326L161.18,39.205L161.188,39.088L161.196,38.975L161.202,38.866L161.208,38.761L161.213,38.659L161.218,38.562L161.221,38.469L161.224,38.379L161.226,38.294L161.227,38.212L161.228,38.135L161.227,38.017L161.226,37.901L161.225,37.785L161.222,37.669L161.219,37.554L161.216,37.44L161.211,37.326L161.206,37.212L161.201,37.1L161.194,36.987L161.187,36.876L161.18,36.764L161.171,36.654L161.163,36.543L161.153,36.434L161.143,36.325L161.132,36.216L161.12,36.108L161.108,36.001L161.095,35.894L161.081,35.787L161.067,35.681L161.052,35.576L161.036,35.471L161.02,35.367L161.003,35.263L160.985,35.16L160.967,35.057L160.948,34.955L160.928,34.853L160.908,34.752L160.887,34.652L160.866,34.552L160.843,34.452L160.82,34.353L160.797,34.255L160.773,34.157L160.748,34.06L160.722,33.963L160.696,33.867L160.669,33.771L160.641,33.676L160.613,33.581L160.584,33.487L160.555,33.394L160.524,33.301L160.493,33.208L160.462,33.116L160.43,33.025L160.397,32.934L160.363,32.843L160.329,32.754L160.294,32.664L160.258,32.576L160.222,32.487L160.185,32.4L160.148,32.313L160.109,32.226L160.071,32.14L160.031,32.054L159.991,31.969L159.95,31.885L159.908,31.801L159.866,31.718L159.823,31.635L159.78,31.553L159.736,31.471L159.692,31.39L159.647,31.31L159.602,31.23L159.557,31.151L159.511,31.073L159.464,30.995L159.417,30.918L159.369,30.842L159.321,30.766L159.273,30.691L159.224,30.617L159.175,30.543L159.125,30.469L159.074,30.397L159.023,30.325L158.972,30.254L158.92,30.183L158.868,30.113L158.815,30.044L158.762,29.975L158.708,29.907L158.654,29.839L158.6,29.773L158.545,29.706L158.489,29.641L158.433,29.576L158.376,29.512L158.319,29.448L158.262,29.385L158.204,29.323L158.145,29.261L158.087,29.2L158.027,29.14L157.967,29.08L157.907,29.021L157.846,28.962L157.785,28.905L157.723,28.847L157.661,28.791L157.598,28.735L157.535,28.68L157.471,28.625L157.407,28.571L157.343,28.518L157.278,28.465L157.212,28.413L157.146,28.361L157.08,28.311L157.013,28.26L156.945,28.211L156.877,28.162L156.809,28.114L156.74,28.066L156.671,28.019L156.601,27.973L156.531,27.927L156.46,27.882L156.389,27.838L156.317,27.794L156.245,27.751L156.172,27.709L156.099,27.667L156.026,27.626L155.952,27.585L155.878,27.545L155.804,27.506L155.73,27.467L155.655,27.43L155.58,27.392L155.505,27.356L155.43,27.32L155.354,27.285L155.278,27.25L155.201,27.216L155.125,27.183L155.048,27.15L154.971,27.118L154.893,27.087L154.815,27.056L154.737,27.026L154.659,26.997L154.581,26.969L154.502,26.941L154.423,26.913L154.343,26.887L154.264,26.861L154.184,26.835L154.103,26.81L154.023,26.786L153.942,26.763L153.861,26.74L153.78,26.718L153.698,26.697L153.616,26.676L153.534,26.656L153.452,26.637L153.369,26.618L153.286,26.6L153.203,26.582L153.119,26.565L153.035,26.549L152.951,26.534L152.867,26.519L152.782,26.505L152.697,26.491L152.612,26.478L152.526,26.466L152.441,26.455L152.355,26.444L152.268,26.434L152.182,26.424L152.095,26.415L152.008,26.407L151.92,26.399L151.833,26.393L151.745,26.386L151.656,26.381L151.568,26.376L151.479,26.371L151.39,26.368L151.301,26.365L151.211,26.363L151.121,26.361L151.031,26.36L150.94,26.36L150.838,26.36ZM150.727,30.697L150.816,30.699L150.904,30.703L150.992,30.708L151.079,30.715L151.165,30.723L151.25,30.733L151.335,30.744L151.419,30.757L151.503,30.772L151.586,30.787L151.668,30.805L151.749,30.823L151.83,30.844L151.91,30.865L151.99,30.889L152.069,30.913L152.147,30.94L152.224,30.968L152.301,30.997L152.377,31.028L152.453,31.06L152.528,31.094L152.602,31.129L152.676,31.166L152.748,31.204L152.821,31.244L152.892,31.285L152.963,31.328L153.033,31.372L153.103,31.418L153.172,31.465L153.24,31.514L153.307,31.564L153.373,31.614L153.438,31.666L153.502,31.718L153.565,31.772L153.627,31.827L153.689,31.882L153.749,31.939L153.808,31.997L153.866,32.055L153.923,32.115L153.98,32.176L154.035,32.237L154.089,32.3L154.143,32.364L154.195,32.428L154.246,32.494L154.296,32.561L154.346,32.629L154.394,32.697L154.442,32.767L154.488,32.838L154.533,32.91L154.578,32.983L154.621,33.056L154.664,33.131L154.705,33.207L154.746,33.284L154.785,33.362L154.824,33.441L154.861,33.52L154.898,33.601L154.933,33.682L154.967,33.763L155,33.845L155.032,33.928L155.062,34.011L155.092,34.094L155.12,34.178L155.148,34.262L155.174,34.346L155.198,34.431L155.222,34.517L155.245,34.603L155.266,34.689L155.286,34.776L155.306,34.863L155.323,34.951L155.34,35.039L155.356,35.127L155.37,35.216L155.384,35.306L155.396,35.396L155.407,35.486L155.417,35.577L155.425,35.668L155.433,35.76L155.439,35.852L155.444,35.944L155.448,36.037L155.451,36.131L155.453,36.225L155.454,36.319L145.469,36.319L145.478,36.239L145.487,36.159L145.497,36.08L145.508,36.002L145.519,35.924L145.531,35.846L145.543,35.769L145.556,35.693L145.569,35.617L145.583,35.541L145.597,35.466L145.612,35.391L145.627,35.318L145.643,35.244L145.66,35.171L145.677,35.099L145.694,35.027L145.713,34.955L145.731,34.884L145.751,34.814L145.77,34.744L145.791,34.675L145.812,34.606L145.833,34.537L145.855,34.47L145.877,34.402L145.9,34.335L145.924,34.269L145.948,34.203L145.973,34.138L145.998,34.073L146.024,34.009L146.05,33.945L146.077,33.882L146.104,33.819L146.132,33.757L146.16,33.695L146.189,33.634L146.219,33.573L146.249,33.513L146.28,33.453L146.311,33.394L146.342,33.336L146.375,33.277L146.407,33.22L146.441,33.163L146.475,33.106L146.509,33.05L146.544,32.994L146.579,32.939L146.615,32.885L146.652,32.831L146.689,32.777L146.727,32.724L146.765,32.672L146.804,32.62L146.843,32.568L146.883,32.517L146.923,32.467L146.964,32.417L147.005,32.367L147.047,32.318L147.09,32.27L147.133,32.222L147.177,32.175L147.22,32.128L147.265,32.082L147.309,32.037L147.354,31.993L147.399,31.949L147.445,31.906L147.491,31.864L147.537,31.823L147.584,31.782L147.631,31.743L147.679,31.703L147.727,31.665L147.775,31.627L147.823,31.591L147.872,31.554L147.921,31.519L147.971,31.484L148.021,31.451L148.071,31.417L148.122,31.385L148.173,31.353L148.224,31.322L148.276,31.292L148.328,31.263L148.38,31.234L148.433,31.206L148.486,31.179L148.54,31.153L148.594,31.127L148.648,31.102L148.703,31.078L148.758,31.054L148.813,31.032L148.868,31.01L148.924,30.988L148.981,30.968L149.038,30.948L149.095,30.929L149.152,30.911L149.21,30.893L149.268,30.877L149.327,30.861L149.385,30.845L149.445,30.831L149.504,30.817L149.564,30.804L149.624,30.792L149.685,30.78L149.746,30.769L149.807,30.759L149.869,30.75L149.931,30.741L149.994,30.734L150.057,30.727L150.12,30.72L150.183,30.715L150.247,30.71L150.311,30.706L150.376,30.702L150.441,30.7L150.506,30.698L150.572,30.697L150.638,30.696L150.727,30.697ZM150.585,31.833L150.532,31.834L150.48,31.835L150.428,31.838L150.377,31.84L150.326,31.843L150.276,31.847L150.226,31.852L150.177,31.857L150.128,31.862L150.08,31.868L150.032,31.875L149.984,31.882L149.937,31.89L149.89,31.898L149.844,31.907L149.798,31.916L149.753,31.926L149.708,31.936L149.663,31.947L149.619,31.959L149.575,31.971L149.532,31.983L149.489,31.996L149.446,32.01L149.404,32.024L149.362,32.039L149.32,32.054L149.279,32.069L149.237,32.086L149.197,32.102L149.156,32.12L149.116,32.138L149.076,32.156L149.036,32.175L148.997,32.194L148.958,32.214L148.919,32.235L148.88,32.256L148.842,32.278L148.803,32.3L148.765,32.323L148.728,32.346L148.69,32.37L148.653,32.395L148.615,32.42L148.578,32.446L148.541,32.473L148.505,32.5L148.468,32.528L148.432,32.556L148.396,32.585L148.36,32.615L148.324,32.645L148.288,32.676L148.253,32.708L148.217,32.74L148.182,32.773L148.147,32.807L148.112,32.841L148.077,32.876L148.043,32.912L148.008,32.949L147.974,32.986L147.94,33.024L147.906,33.063L147.872,33.102L147.839,33.141L147.807,33.181L147.774,33.222L147.743,33.262L147.711,33.303L147.68,33.345L147.65,33.387L147.619,33.43L147.59,33.473L147.56,33.516L147.531,33.56L147.503,33.605L147.474,33.649L147.447,33.695L147.419,33.741L147.392,33.787L147.365,33.834L147.339,33.881L147.313,33.929L147.288,33.977L147.263,34.026L147.238,34.076L147.214,34.126L147.19,34.176L147.166,34.227L147.143,34.279L147.121,34.331L147.098,34.383L147.076,34.436L147.055,34.49L147.034,34.545L147.013,34.599L146.993,34.655L146.973,34.711L146.953,34.767L146.934,34.824L146.916,34.882L146.898,34.94L146.88,34.999L146.862,35.058L146.845,35.118L146.829,35.179L146.828,35.183L154.211,35.183L154.209,35.171L154.194,35.098L154.178,35.026L154.161,34.955L154.144,34.884L154.125,34.813L154.106,34.743L154.085,34.673L154.064,34.604L154.042,34.535L154.018,34.466L153.994,34.398L153.969,34.33L153.943,34.262L153.916,34.195L153.888,34.128L153.859,34.062L153.829,33.996L153.799,33.931L153.768,33.868L153.736,33.806L153.704,33.744L153.671,33.684L153.637,33.625L153.603,33.567L153.568,33.509L153.533,33.453L153.496,33.398L153.459,33.343L153.422,33.29L153.383,33.237L153.345,33.186L153.305,33.135L153.265,33.085L153.224,33.036L153.182,32.988L153.14,32.941L153.097,32.894L153.053,32.849L153.008,32.804L152.963,32.76L152.917,32.716L152.87,32.674L152.822,32.632L152.774,32.591L152.725,32.55L152.675,32.511L152.624,32.472L152.572,32.433L152.52,32.396L152.469,32.361L152.418,32.327L152.366,32.295L152.314,32.264L152.262,32.234L152.21,32.205L152.157,32.177L152.104,32.15L152.05,32.125L151.996,32.1L151.941,32.077L151.886,32.055L151.83,32.033L151.774,32.013L151.717,31.994L151.66,31.976L151.602,31.959L151.543,31.943L151.484,31.928L151.423,31.914L151.362,31.902L151.301,31.89L151.238,31.879L151.175,31.87L151.111,31.861L151.046,31.854L150.98,31.847L150.914,31.842L150.846,31.838L150.777,31.835L150.708,31.833L150.636,31.833L150.585,31.833Z" style="fill:white;"/>
            </g>
            <g transform="matrix(0.286674,0,0,0.286674,402.429,304.007)">
                <path d="M179.123,14.579L179.137,14.537L179.203,14.333L179.265,14.132L179.325,13.933L179.382,13.737L179.437,13.543L179.489,13.352L179.538,13.163L179.584,12.976L179.627,12.792L179.668,12.611L179.707,12.432L179.742,12.256L179.776,12.082L179.806,11.911L179.834,11.742L179.86,11.576L179.883,11.412L179.904,11.251L179.922,11.093L179.938,10.937L179.951,10.784L179.962,10.633L179.971,10.485L179.978,10.34L179.982,10.198L179.984,10.057L179.984,9.92L179.982,9.785L179.977,9.653L179.971,9.524L179.962,9.397L179.952,9.273L179.939,9.152L179.925,9.033L179.909,8.917L179.891,8.803L179.871,8.693L179.85,8.584L179.827,8.479L179.802,8.376L179.776,8.276L179.748,8.178L179.719,8.082L179.688,7.99L179.656,7.899L179.622,7.812L179.588,7.726L179.551,7.643L179.514,7.562L179.476,7.484L179.436,7.408L179.395,7.334L179.353,7.262L179.31,7.192L179.266,7.124L179.221,7.058L179.175,6.994L179.127,6.932L179.079,6.872L179.03,6.813L178.979,6.756L178.928,6.701L178.876,6.647L178.822,6.595L178.768,6.544L178.735,6.516L178.712,6.495L178.655,6.446L178.598,6.399L178.539,6.353L178.479,6.308L178.417,6.264L178.355,6.222L178.291,6.181L178.225,6.141L178.158,6.102L178.09,6.064L178.02,6.027L177.949,5.991L177.876,5.956L177.802,5.923L177.726,5.89L177.648,5.858L177.569,5.828L177.488,5.799L177.405,5.771L177.321,5.743L177.235,5.717L177.148,5.693L177.058,5.669L176.967,5.647L176.875,5.625L176.78,5.605L176.684,5.587L176.586,5.569L176.487,5.553L176.386,5.538L176.283,5.524L176.178,5.512L176.072,5.5L175.964,5.491L175.854,5.482L175.743,5.475L175.63,5.47L175.516,5.466L175.4,5.463L175.282,5.461L175.163,5.462L175.042,5.463L174.92,5.466L174.796,5.471L174.671,5.476L174.544,5.484L174.416,5.493L174.286,5.503L174.155,5.515L174.022,5.529L173.889,5.544L173.753,5.56L173.617,5.578L173.479,5.598L173.34,5.619L173.199,5.641L173.057,5.666L172.914,5.691L172.77,5.719L172.625,5.747L172.478,5.778L172.42,5.791L172.33,5.809L172.181,5.84L172.031,5.873L171.879,5.908L171.727,5.944L171.573,5.982L171.418,6.022L171.263,6.063L171.106,6.105L170.948,6.149L170.789,6.195L170.629,6.242L170.468,6.291L170.306,6.341L170.144,6.393L169.98,6.446L169.816,6.501L169.65,6.558L169.484,6.616L169.317,6.675L169.149,6.737L168.98,6.799L168.811,6.863L168.641,6.929L168.47,6.997L168.298,7.065L168.126,7.136L167.953,7.208L167.779,7.281L167.605,7.356L167.429,7.433L167.254,7.511L167.078,7.59L166.901,7.671L166.723,7.754L166.707,7.762L166.544,7.833L166.363,7.913L166.182,7.995L166,8.078L165.817,8.163L165.635,8.249L165.451,8.337L165.267,8.426L165.083,8.516L164.898,8.608L164.713,8.702L164.527,8.797L164.341,8.894L164.154,8.992L163.967,9.091L163.78,9.192L163.592,9.294L163.404,9.398L163.216,9.503L163.027,9.61L162.839,9.718L162.649,9.828L162.567,9.877L162.459,9.938L162.269,10.048L162.078,10.16L161.887,10.274L161.695,10.388L161.504,10.505L161.312,10.622L161.12,10.741L160.928,10.862L160.736,10.984L160.543,11.107L160.351,11.232L160.158,11.358L159.966,11.485L159.773,11.614L159.581,11.744L159.388,11.876L159.195,12.009L159.003,12.143L158.81,12.279L158.617,12.416L158.425,12.554L158.233,12.694L158.04,12.836L157.848,12.978L157.656,13.122L157.464,13.267L157.272,13.414L157.08,13.562L157.035,13.597L156.888,13.71L156.696,13.859L156.504,14.01L156.312,14.162L156.12,14.315L155.929,14.47L155.738,14.626L155.547,14.783L155.356,14.941L155.166,15.101L154.976,15.263L154.786,15.425L154.597,15.589L154.408,15.754L154.22,15.92L154.032,16.088L153.844,16.257L153.657,16.427L153.47,16.598L153.283,16.771L153.097,16.945L152.912,17.12L152.727,17.297L152.542,17.475L152.359,17.654L152.175,17.834L151.992,18.016L151.81,18.198L151.8,18.209L151.627,18.381L151.444,18.564L151.261,18.748L151.079,18.934L150.898,19.121L150.718,19.31L150.538,19.499L150.359,19.69L150.18,19.882L150.002,20.075L149.825,20.27L149.649,20.465L149.473,20.662L149.298,20.861L149.127,21.055L148.958,21.251L148.789,21.448L148.621,21.645L148.454,21.843L148.288,22.041L148.122,22.241L148.034,22.349L147.956,22.439L147.788,22.636L147.621,22.833L147.454,23.031L147.289,23.23L147.124,23.429L146.961,23.629L146.798,23.83L146.637,24.031L146.476,24.233L146.316,24.435L146.157,24.638L145.999,24.841L145.842,25.045L145.686,25.25L145.531,25.455L145.377,25.66L145.224,25.866L145.072,26.072L144.963,26.221L144.921,26.278L144.768,26.483L144.617,26.689L144.466,26.895L144.316,27.101L144.168,27.308L144.021,27.515L143.874,27.723L143.729,27.93L143.584,28.138L143.441,28.347L143.299,28.555L143.158,28.764L143.017,28.973L142.878,29.182L142.74,29.392L142.603,29.602L142.468,29.811L142.333,30.021L142.199,30.232L142.067,30.442L141.935,30.652L141.805,30.863L141.676,31.073L141.548,31.284L141.499,31.364L141.42,31.494L141.293,31.704L141.167,31.914L141.042,32.123L140.918,32.333L140.796,32.543L140.674,32.753L140.554,32.963L140.435,33.172L140.317,33.382L140.2,33.591L140.085,33.801L139.97,34.01L139.857,34.219L139.745,34.428L139.635,34.636L139.525,34.845L139.417,35.053L139.31,35.261L139.204,35.469L139.099,35.676L138.996,35.884L138.894,36.09L138.793,36.297L138.694,36.503L138.683,36.525L138.594,36.709L138.495,36.913L138.398,37.118L138.302,37.322L138.207,37.525L138.113,37.729L138.021,37.931L137.93,38.134L137.84,38.336L137.752,38.537L137.665,38.738L137.579,38.938L137.495,39.138L137.412,39.337L137.33,39.536L137.25,39.734L137.171,39.931L137.093,40.128L137.079,40.165L137.013,40.323L136.934,40.517L136.856,40.711L136.78,40.904L136.705,41.096L136.632,41.287L136.559,41.478L136.489,41.668L136.419,41.858L136.351,42.046L136.285,42.234L136.22,42.421L136.156,42.608L136.094,42.793L136.033,42.978L135.973,43.161L135.915,43.344L135.859,43.526L135.804,43.707L135.75,43.887L135.698,44.067L135.647,44.245L135.598,44.422L135.55,44.598L135.503,44.773L135.459,44.947L135.415,45.121L135.373,45.292L135.333,45.463L135.301,45.6L135.293,45.633L135.254,45.801L135.217,45.969L135.181,46.135L135.146,46.3L135.113,46.463L135.081,46.626L135.051,46.787L135.022,46.947L134.995,47.106L134.97,47.263L134.946,47.419L134.923,47.574L134.902,47.727L134.882,47.879L134.864,48.03L134.848,48.179L134.833,48.327L134.819,48.473L134.807,48.618L134.796,48.762L134.787,48.903L134.779,49.044L134.773,49.183L134.769,49.32L134.765,49.455L134.764,49.589L134.763,49.722L134.765,49.852L134.767,49.981L134.771,50.109L134.777,50.234L134.784,50.358L134.792,50.48L134.802,50.601L134.813,50.719L134.825,50.836L134.839,50.951L134.854,51.064L134.871,51.175L134.888,51.285L134.908,51.393L134.928,51.498L134.95,51.602L134.973,51.704L134.997,51.804L135.022,51.903L135.049,51.999L135.077,52.094L135.097,52.159L135.106,52.186L135.135,52.277L135.166,52.366L135.198,52.454L135.231,52.539L135.266,52.623L135.301,52.705L135.338,52.785L135.375,52.863L135.414,52.94L135.454,53.015L135.495,53.088L135.537,53.16L135.58,53.23L135.625,53.298L135.67,53.365L135.717,53.43L135.765,53.494L135.814,53.557L135.864,53.618L135.916,53.677L135.969,53.736L136.023,53.793L136.079,53.848L136.137,53.903L136.196,53.956L136.256,54.008L136.318,54.059L136.382,54.108L136.448,54.156L136.516,54.203L136.585,54.249L136.657,54.294L136.73,54.337L136.806,54.38L136.884,54.42L136.964,54.46L137.046,54.498L137.131,54.535L137.218,54.571L137.307,54.605L137.399,54.638L137.494,54.669L137.591,54.698L137.69,54.726L137.793,54.752L137.897,54.777L138.005,54.8L138.115,54.821L138.228,54.84L138.344,54.857L138.462,54.873L138.583,54.886L138.707,54.897L138.834,54.906L138.963,54.914L139.095,54.918L139.23,54.921L139.368,54.922L139.508,54.92L139.651,54.916L139.797,54.909L139.945,54.9L140.097,54.889L140.251,54.875L140.408,54.859L140.567,54.84L140.729,54.819L140.894,54.795L141.062,54.769L141.232,54.74L141.405,54.708L141.58,54.673L141.759,54.636L141.939,54.596L142.123,54.553L142.309,54.508L142.498,54.46L142.689,54.409L142.883,54.355L143.08,54.298L143.279,54.238L143.481,54.176L143.507,54.167L143.689,54.109L144.702,54.538L144.273,55.551L144.095,55.639L144.07,55.651L143.866,55.748L143.663,55.843L143.462,55.934L143.263,56.022L143.064,56.107L142.868,56.189L142.672,56.268L142.479,56.344L142.286,56.417L142.095,56.487L141.905,56.554L141.717,56.618L141.53,56.679L141.345,56.737L141.161,56.791L140.978,56.843L140.796,56.892L140.616,56.938L140.437,56.981L140.259,57.02L140.082,57.057L139.907,57.091L139.733,57.122L139.56,57.149L139.388,57.174L139.217,57.196L139.048,57.214L138.879,57.23L138.712,57.243L138.546,57.252L138.381,57.258L138.217,57.261L138.055,57.261L137.893,57.258L137.733,57.252L137.573,57.242L137.415,57.23L137.258,57.214L137.103,57.195L136.948,57.172L136.795,57.147L136.643,57.118L136.492,57.085L136.343,57.05L136.195,57.011L136.048,56.968L135.903,56.923L135.759,56.874L135.617,56.821L135.477,56.766L135.338,56.707L135.2,56.645L135.065,56.579L134.932,56.511L134.8,56.439L134.67,56.363L134.542,56.285L134.417,56.204L134.293,56.119L134.171,56.032L134.052,55.942L133.935,55.848L133.82,55.752L133.707,55.653L133.597,55.552L133.489,55.447L133.383,55.34L133.28,55.231L133.179,55.119L133.081,55.005L132.985,54.888L132.891,54.77L132.8,54.649L132.711,54.525L132.625,54.4L132.541,54.273L132.459,54.143L132.379,54.012L132.302,53.879L132.228,53.744L132.155,53.607L132.085,53.468L132.065,53.427L132.017,53.327L131.952,53.185L131.889,53.041L131.828,52.896L131.77,52.749L131.713,52.6L131.659,52.45L131.606,52.298L131.556,52.145L131.508,51.99L131.462,51.834L131.417,51.676L131.375,51.517L131.335,51.357L131.297,51.195L131.26,51.032L131.226,50.867L131.193,50.701L131.162,50.534L131.133,50.366L131.106,50.196L131.08,50.025L131.057,49.852L131.035,49.679L131.015,49.504L130.996,49.328L130.98,49.15L130.965,48.972L130.952,48.792L130.94,48.611L130.93,48.429L130.922,48.245L130.915,48.06L130.91,47.875L130.907,47.688L130.905,47.5L130.905,47.31L130.907,47.12L130.91,46.928L130.915,46.736L130.921,46.542L130.929,46.347L130.938,46.151L130.949,45.954L130.962,45.756L130.976,45.557L130.991,45.357L131.008,45.156L131.027,44.954L131.031,44.914L131.048,44.751L131.071,44.547L131.096,44.342L131.122,44.136L131.15,43.929L131.179,43.721L131.21,43.513L131.242,43.303L131.276,43.092L131.311,42.881L131.347,42.669L131.385,42.456L131.425,42.242L131.465,42.027L131.508,41.811L131.552,41.595L131.597,41.377L131.643,41.159L131.691,40.94L131.741,40.721L131.792,40.5L131.844,40.279L131.898,40.057L131.953,39.834L132.009,39.611L132.067,39.387L132.127,39.162L132.187,38.936L132.249,38.71L132.301,38.526L132.314,38.484L132.383,38.258L132.453,38.031L132.525,37.804L132.598,37.576L132.672,37.348L132.748,37.119L132.825,36.89L132.904,36.66L132.983,36.43L133.065,36.199L133.147,35.968L133.231,35.736L133.316,35.504L133.403,35.271L133.491,35.038L133.58,34.805L133.671,34.571L133.753,34.362L133.763,34.337L133.858,34.103L133.954,33.869L134.051,33.635L134.15,33.4L134.25,33.165L134.352,32.93L134.455,32.694L134.559,32.458L134.664,32.222L134.77,31.986L134.878,31.749L134.988,31.512L135.098,31.275L135.21,31.038L135.323,30.801L135.437,30.564L135.552,30.326L135.669,30.088L135.787,29.85L135.906,29.613L136.027,29.375L136.149,29.137L136.272,28.898L136.396,28.66L136.474,28.513L136.522,28.422L136.65,28.185L136.78,27.948L136.91,27.71L137.042,27.473L137.175,27.236L137.31,26.999L137.445,26.762L137.582,26.525L137.72,26.288L137.859,26.051L137.999,25.815L138.141,25.578L138.283,25.342L138.427,25.106L138.572,24.87L138.719,24.634L138.866,24.399L139.015,24.163L139.165,23.928L139.316,23.694L139.468,23.459L139.621,23.225L139.776,22.991L139.932,22.758L139.975,22.693L140.09,22.526L140.251,22.295L140.412,22.064L140.575,21.834L140.739,21.604L140.904,21.375L141.07,21.146L141.238,20.917L141.406,20.689L141.576,20.462L141.747,20.235L141.919,20.008L142.092,19.782L142.266,19.557L142.441,19.332L142.617,19.107L142.795,18.883L142.973,18.66L143.153,18.438L143.236,18.336L143.336,18.218L143.522,18.001L143.71,17.784L143.899,17.568L144.088,17.353L144.279,17.139L144.471,16.925L144.664,16.712L144.864,16.493L145.064,16.276L145.266,16.06L145.468,15.846L145.671,15.633L145.875,15.421L146.079,15.211L146.284,15.003L146.49,14.795L146.696,14.59L146.903,14.385L147.111,14.182L147.319,13.981L147.516,13.792L147.528,13.781L147.739,13.584L147.951,13.389L148.163,13.195L148.376,13.002L148.589,12.811L148.803,12.622L149.018,12.434L149.232,12.247L149.448,12.062L149.663,11.879L149.879,11.696L150.096,11.516L150.312,11.336L150.53,11.159L150.747,10.982L150.965,10.807L151.183,10.634L151.402,10.462L151.62,10.292L151.84,10.123L152.059,9.955L152.279,9.789L152.498,9.625L152.719,9.461L152.939,9.3L153.159,9.14L153.38,8.981L153.549,8.861L153.601,8.824L153.823,8.67L154.046,8.517L154.268,8.366L154.49,8.216L154.713,8.068L154.935,7.921L155.158,7.775L155.381,7.631L155.603,7.489L155.826,7.348L156.049,7.209L156.272,7.071L156.495,6.935L156.717,6.8L156.94,6.666L157.163,6.534L157.385,6.404L157.608,6.275L157.83,6.148L158.052,6.022L158.275,5.898L158.497,5.775L158.719,5.654L158.94,5.534L159.162,5.416L159.383,5.299L159.605,5.184L159.826,5.07L159.95,5.007L160.047,4.959L160.268,4.85L160.49,4.743L160.711,4.638L160.932,4.534L161.152,4.431L161.372,4.33L161.592,4.231L161.811,4.133L162.03,4.037L162.249,3.942L162.467,3.849L162.685,3.757L162.903,3.667L163.12,3.579L163.337,3.492L163.553,3.406L163.769,3.322L163.984,3.24L164.199,3.159L164.413,3.08L164.627,3.002L164.821,2.933L164.841,2.927L165.056,2.858L165.27,2.79L165.484,2.724L165.697,2.66L165.909,2.597L166.121,2.536L166.332,2.476L166.542,2.418L166.752,2.361L166.961,2.306L167.169,2.253L167.377,2.201L167.584,2.151L167.79,2.103L167.995,2.056L168.2,2.01L168.404,1.966L168.607,1.924L168.809,1.884L169.011,1.845L169.211,1.808L169.411,1.772L169.61,1.738L169.808,1.705L170.006,1.675L170.202,1.645L170.398,1.618L170.592,1.592L170.786,1.568L170.979,1.545L171.171,1.524L171.362,1.505L171.552,1.488L171.741,1.472L171.855,1.463L171.93,1.458L172.117,1.448L172.304,1.439L172.489,1.432L172.674,1.427L172.857,1.423L173.039,1.421L173.221,1.421L173.401,1.422L173.58,1.425L173.759,1.43L173.936,1.437L174.112,1.445L174.287,1.456L174.46,1.468L174.633,1.482L174.805,1.498L174.975,1.515L175.144,1.535L175.312,1.556L175.479,1.579L175.645,1.604L175.81,1.631L175.973,1.66L176.135,1.691L176.296,1.724L176.456,1.759L176.614,1.796L176.771,1.834L176.927,1.875L177.081,1.918L177.234,1.963L177.386,2.01L177.537,2.06L177.686,2.111L177.833,2.165L177.979,2.22L178.124,2.278L178.267,2.338L178.409,2.401L178.549,2.466L178.687,2.533L178.824,2.602L178.959,2.674L179.092,2.748L179.223,2.824L179.353,2.903L179.481,2.984L179.607,3.067L179.731,3.153L179.853,3.242L179.972,3.332L180.09,3.425L180.205,3.521L180.318,3.619L180.429,3.719L180.538,3.822L180.644,3.927L180.747,4.035L180.848,4.145L180.946,4.257L181.042,4.371L181.081,4.42L181.134,4.488L181.224,4.607L181.31,4.728L181.394,4.851L181.475,4.977L181.553,5.104L181.627,5.233L181.699,5.364L181.767,5.497L181.833,5.631L181.895,5.768L181.954,5.906L182.01,6.045L182.062,6.186L182.112,6.329L182.158,6.473L182.201,6.618L182.241,6.765L182.277,6.913L182.31,7.062L182.341,7.213L182.368,7.364L182.392,7.517L182.412,7.671L182.43,7.826L182.444,7.983L182.456,8.14L182.464,8.298L182.469,8.458L182.472,8.618L182.471,8.78L182.467,8.943L182.46,9.106L182.451,9.271L182.438,9.437L182.422,9.604L182.404,9.772L182.382,9.941L182.358,10.111L182.331,10.282L182.3,10.454L182.267,10.628L182.231,10.802L182.192,10.978L182.151,11.154L182.106,11.332L182.059,11.511L182.008,11.691L181.955,11.873L181.899,12.055L181.84,12.239L181.778,12.424L181.713,12.611L181.646,12.798L181.575,12.987L181.502,13.177L181.425,13.369L181.346,13.561L181.264,13.755L181.179,13.951L181.091,14.148L181,14.346L180.906,14.545L180.809,14.746L180.709,14.948L180.606,15.152L180.585,15.192L180.501,15.354L179.475,15.78L179.068,14.747L179.123,14.579Z" style="fill:rgb(249,204,11);"/>
            </g>
        </g>
    </g>
</svg>
