<?xml version="1.0" encoding="UTF-8" standalone="no"?>
<!DOCTYPE svg PUBLIC "-//W3C//DTD SVG 1.1//EN" "http://www.w3.org/Graphics/SVG/1.1/DTD/svg11.dtd">
<svg width="100%" height="100%" viewBox="0 0 60 60" version="1.1" xmlns="http://www.w3.org/2000/svg" xmlns:xlink="http://www.w3.org/1999/xlink" xml:space="preserve" xmlns:serif="http://www.serif.com/" style="fill-rule:evenodd;clip-rule:evenodd;stroke-linejoin:round;stroke-miterlimit:2;">
    <g transform="matrix(1,0,0,1,-126.795,0)">
        <g id="Artboard1" transform="matrix(3.34604,0,0,3.34604,-1339.96,-1015.3)">
            <rect x="438.355" y="303.434" width="17.932" height="17.932" style="fill:none;"/>
            <g transform="matrix(0.270363,0,0,0.187833,404.161,304.572)">
                <rect x="129.834" y="10.245" width="31.277" height="19.755" style="fill:white;"/>
                <path d="M161.276,7.071L161.44,7.098L161.602,7.142L161.762,7.204L161.918,7.282L162.07,7.378L162.216,7.489L162.356,7.615L162.489,7.757L162.614,7.912L162.731,8.08L162.839,8.261L162.937,8.452L163.025,8.654L163.102,8.864L163.168,9.082L163.223,9.307L163.266,9.537L163.296,9.77L163.315,10.007L163.321,10.245L163.321,30L163.315,30.238L163.296,30.474L163.266,30.708L163.223,30.938L163.168,31.163L163.102,31.381L163.025,31.591L162.937,31.793L162.839,31.984L162.731,32.164L162.614,32.333L162.489,32.488L162.356,32.629L162.216,32.756L162.07,32.867L161.918,32.962L161.762,33.041L161.602,33.102L161.44,33.147L161.276,33.173L161.11,33.182L129.834,33.182L129.668,33.173L129.504,33.147L129.342,33.102L129.182,33.041L129.026,32.962L128.874,32.867L128.728,32.756L128.588,32.629L128.455,32.488L128.33,32.333L128.213,32.164L128.105,31.984L128.007,31.793L127.919,31.591L127.842,31.381L127.776,31.163L127.721,30.938L127.678,30.708L127.648,30.474L127.629,30.238L127.623,30L127.623,10.245L127.629,10.007L127.648,9.77L127.678,9.537L127.721,9.307L127.776,9.082L127.842,8.864L127.919,8.654L128.007,8.452L128.105,8.261L128.213,8.08L128.33,7.912L128.455,7.757L128.588,7.615L128.728,7.489L128.874,7.378L129.026,7.282L129.182,7.204L129.342,7.142L129.504,7.098L129.668,7.071L129.834,7.062L161.11,7.062L161.276,7.071ZM129.834,10.245L129.834,30L161.11,30L161.11,10.245L129.834,10.245Z" style="fill:white;"/>
            </g>
            <g transform="matrix(0.29886,0,0,0.29886,400.461,303.434)">
                <path d="M159.882,14.005L181.518,14.005C182.754,14.005 183.757,15.008 183.757,16.243L183.757,50.994L129.834,50.994L129.834,24.48C129.834,24.48 129.834,20.253 129.834,20.253C129.834,19.539 130.413,18.96 131.127,18.96L149.693,18.96C150.158,18.937 150.219,18.915 150.515,18.53L153.341,14.005L159.882,14.005L159.882,14.005ZM129.834,16.96L129.834,14.721L129.834,10.245C129.834,9.009 130.837,8.006 132.072,8.006L155.89,8.006C157.125,8.006 158.128,9.009 158.128,10.245L158.128,12.005L152.755,12.005C152.29,12.027 152.228,12.05 151.933,12.435L149.106,16.96L129.834,16.96Z" style="fill:rgb(0,0,255);"/>
                <path d="M155.998,6.007L156.106,6.012L156.214,6.018L156.321,6.028L156.427,6.04L156.533,6.055L156.638,6.072L156.742,6.092L156.845,6.115L156.948,6.14L157.049,6.167L157.149,6.197L157.249,6.23L157.347,6.264L157.444,6.301L157.54,6.34L157.635,6.382L157.728,6.426L157.821,6.471L157.911,6.519L158.001,6.569L158.089,6.621L158.175,6.675L158.261,6.732L158.344,6.79L158.427,6.85L158.507,6.911L158.586,6.975L158.664,7.041L158.74,7.108L158.814,7.177L158.886,7.248L158.957,7.32L159.026,7.395L159.094,7.471L159.159,7.548L159.223,7.627L159.285,7.708L159.345,7.79L159.403,7.874L159.459,7.959L159.513,8.045L159.565,8.134L159.615,8.223L159.663,8.314L159.709,8.406L159.752,8.499L159.794,8.594L159.833,8.69L159.87,8.787L159.905,8.885L159.937,8.985L159.967,9.085L159.994,9.187L160.019,9.289L160.042,9.392L160.062,9.496L160.079,9.602L160.094,9.707L160.106,9.814L160.116,9.921L160.123,10.028L160.127,10.136L160.128,10.232L160.128,12.005L181.531,12.005L181.627,12.006L181.735,12.01L181.842,12.017L181.949,12.026L182.056,12.039L182.161,12.053L182.266,12.071L182.37,12.091L182.474,12.113L182.576,12.138L182.678,12.166L182.778,12.196L182.877,12.228L182.976,12.263L183.073,12.3L183.169,12.339L183.263,12.38L183.357,12.424L183.449,12.47L183.54,12.518L183.629,12.568L183.717,12.62L183.804,12.674L183.889,12.73L183.973,12.788L184.055,12.848L184.136,12.91L184.215,12.974L184.292,13.039L184.368,13.107L184.443,13.176L184.515,13.246L184.586,13.319L184.655,13.393L184.722,13.469L184.788,13.546L184.851,13.625L184.913,13.706L184.973,13.788L185.031,13.872L185.087,13.957L185.141,14.044L185.194,14.132L185.244,14.221L185.292,14.312L185.337,14.405L185.381,14.498L185.422,14.592L185.462,14.688L185.499,14.786L185.533,14.884L185.566,14.983L185.596,15.084L185.623,15.185L185.648,15.287L185.671,15.391L185.691,15.495L185.708,15.6L185.723,15.706L185.735,15.812L185.744,15.919L185.751,16.026L185.755,16.135L185.757,16.231L185.757,50.994L185.747,51.19L185.718,51.384L185.67,51.574L185.604,51.759L185.52,51.937L185.419,52.105L185.303,52.263L185.171,52.408L185.025,52.54L184.868,52.657L184.699,52.758L184.522,52.841L184.337,52.908L184.147,52.955L183.953,52.984L183.757,52.994L129.834,52.994L129.638,52.984L129.444,52.955L129.253,52.908L129.068,52.841L128.891,52.758L128.723,52.657L128.565,52.54L128.419,52.408L128.288,52.263L128.171,52.105L128.07,51.937L127.986,51.759L127.92,51.574L127.872,51.384L127.843,51.19L127.834,50.994L127.834,20.24L127.835,20.169L127.838,20.085L127.843,20.002L127.85,19.918L127.86,19.836L127.871,19.754L127.885,19.672L127.901,19.591L127.918,19.511L127.938,19.431L127.959,19.352L127.982,19.274L128.007,19.196L128.034,19.12L128.063,19.045L128.093,18.97L128.126,18.897L128.16,18.824L128.195,18.752L128.232,18.682L128.271,18.612L128.312,18.544L128.354,18.476L128.404,18.4L128.421,18.376L128.419,18.374L128.288,18.229L128.171,18.071L128.07,17.903L127.986,17.725L127.92,17.54L127.872,17.35L127.843,17.156L127.834,16.96L127.834,10.232L127.835,10.136L127.839,10.028L127.846,9.921L127.855,9.814L127.868,9.707L127.882,9.602L127.9,9.496L127.92,9.392L127.942,9.289L127.967,9.187L127.995,9.085L128.025,8.985L128.057,8.885L128.092,8.787L128.128,8.69L128.168,8.594L128.209,8.499L128.253,8.406L128.299,8.314L128.347,8.223L128.397,8.134L128.449,8.045L128.503,7.959L128.559,7.874L128.617,7.79L128.677,7.708L128.739,7.627L128.803,7.548L128.868,7.471L128.935,7.395L129.004,7.32L129.075,7.248L129.148,7.177L129.222,7.108L129.298,7.041L129.375,6.975L129.454,6.911L129.535,6.85L129.617,6.79L129.701,6.732L129.786,6.675L129.873,6.621L129.961,6.569L130.05,6.519L130.141,6.471L130.233,6.426L130.327,6.382L130.422,6.34L130.517,6.301L130.615,6.264L130.713,6.23L130.812,6.197L130.913,6.167L131.014,6.14L131.117,6.115L131.22,6.092L131.324,6.072L131.429,6.055L131.535,6.04L131.641,6.028L131.748,6.018L131.856,6.012L131.964,6.007L132.059,6.006L155.902,6.006L155.998,6.007ZM159.882,14.005L159.882,14.005L153.341,14.005L150.515,18.53L150.462,18.598L150.414,18.658L150.369,18.71L150.327,18.756L150.307,18.777L150.287,18.796L150.267,18.813L150.247,18.829L150.228,18.844L150.208,18.857L150.188,18.87L150.167,18.881L150.146,18.891L150.125,18.9L150.102,18.908L150.079,18.915L150.055,18.922L150.03,18.928L150.004,18.933L149.976,18.937L149.916,18.945L149.85,18.951L149.776,18.956L149.693,18.96L133.557,18.96L131.127,18.96L131.093,18.96L131.06,18.962L131.027,18.964L130.994,18.967L130.962,18.97L130.93,18.975L130.898,18.98L130.866,18.986L130.835,18.993L130.804,19.001L130.773,19.009L130.742,19.018L130.712,19.028L130.682,19.038L130.653,19.05L130.624,19.062L130.595,19.074L130.566,19.087L130.538,19.101L130.511,19.116L130.483,19.131L130.456,19.147L130.43,19.164L130.404,19.181L130.353,19.217L130.304,19.255L130.257,19.296L130.213,19.339L130.17,19.384L130.129,19.431L130.091,19.479L130.055,19.53L130.037,19.556L130.021,19.583L130.005,19.609L129.99,19.637L129.975,19.664L129.961,19.692L129.948,19.721L129.935,19.75L129.923,19.779L129.912,19.808L129.902,19.838L129.892,19.868L129.883,19.899L129.874,19.93L129.867,19.961L129.86,19.992L129.854,20.024L129.849,20.056L129.844,20.088L129.84,20.121L129.837,20.153L129.835,20.186L129.834,20.219L129.834,20.253L129.834,50.994L183.757,50.994L183.757,16.243L183.756,16.185L183.754,16.128L183.75,16.071L183.745,16.014L183.739,15.958L183.731,15.902L183.722,15.847L183.711,15.792L183.699,15.738L183.686,15.684L183.672,15.631L183.656,15.578L183.639,15.526L183.621,15.474L183.601,15.423L183.581,15.372L183.559,15.322L183.536,15.273L183.512,15.224L183.486,15.177L183.46,15.129L183.432,15.083L183.404,15.037L183.374,14.992L183.343,14.948L183.312,14.904L183.279,14.862L183.245,14.82L183.21,14.779L183.175,14.738L183.138,14.699L183.101,14.661L183.062,14.623L183.023,14.587L182.983,14.551L182.942,14.516L182.9,14.482L182.857,14.45L182.814,14.418L182.769,14.387L182.724,14.358L182.679,14.329L182.632,14.301L182.585,14.275L182.537,14.25L182.488,14.226L182.439,14.203L182.389,14.181L182.339,14.16L182.287,14.141L182.236,14.122L182.184,14.105L182.131,14.09L182.077,14.075L182.023,14.062L181.969,14.05L181.914,14.04L181.859,14.031L181.803,14.023L181.747,14.016L181.69,14.011L181.633,14.008L181.576,14.005L181.518,14.005L159.882,14.005ZM132.072,8.006L132.014,8.007L131.957,8.009L131.9,8.013L131.843,8.018L131.787,8.024L131.731,8.032L131.676,8.041L131.621,8.052L131.567,8.064L131.513,8.077L131.46,8.091L131.407,8.107L131.354,8.124L131.303,8.142L131.252,8.162L131.201,8.182L131.151,8.204L131.102,8.227L131.053,8.251L131.005,8.277L130.958,8.303L130.912,8.331L130.866,8.359L130.821,8.389L130.777,8.42L130.733,8.451L130.69,8.484L130.649,8.518L130.608,8.552L130.567,8.588L130.528,8.625L130.49,8.662L130.452,8.701L130.415,8.74L130.38,8.78L130.345,8.821L130.311,8.863L130.279,8.906L130.247,8.949L130.216,8.994L130.187,9.039L130.158,9.084L130.13,9.131L130.104,9.178L130.079,9.226L130.055,9.275L130.032,9.324L130.01,9.374L129.989,9.424L129.97,9.475L129.951,9.527L129.934,9.579L129.919,9.632L129.904,9.686L129.891,9.739L129.879,9.794L129.869,9.849L129.86,9.904L129.852,9.96L129.845,10.016L129.84,10.073L129.837,10.13L129.834,10.187L129.834,10.245L129.834,16.96L149.106,16.96L151.933,12.435L151.986,12.367L152.034,12.307L152.079,12.254L152.121,12.208L152.141,12.188L152.161,12.169L152.181,12.152L152.2,12.135L152.22,12.121L152.24,12.107L152.26,12.095L152.28,12.084L152.301,12.074L152.323,12.065L152.345,12.056L152.368,12.049L152.393,12.043L152.418,12.037L152.444,12.032L152.472,12.027L152.532,12.02L152.598,12.014L152.672,12.009L152.755,12.005L158.128,12.005L158.128,10.245L158.127,10.187L158.125,10.13L158.121,10.073L158.116,10.016L158.11,9.96L158.102,9.904L158.093,9.849L158.082,9.794L158.071,9.739L158.057,9.686L158.043,9.632L158.027,9.579L158.01,9.527L157.992,9.475L157.973,9.424L157.952,9.374L157.93,9.324L157.907,9.275L157.883,9.226L157.858,9.178L157.831,9.131L157.804,9.084L157.775,9.039L157.745,8.994L157.715,8.949L157.683,8.906L157.65,8.863L157.617,8.821L157.582,8.78L157.546,8.74L157.51,8.701L157.472,8.662L157.434,8.625L157.394,8.588L157.354,8.552L157.313,8.518L157.271,8.484L157.228,8.451L157.185,8.42L157.141,8.389L157.096,8.359L157.05,8.331L157.003,8.303L156.956,8.277L156.908,8.251L156.86,8.227L156.81,8.204L156.761,8.182L156.71,8.162L156.659,8.142L156.607,8.124L156.555,8.107L156.502,8.091L156.449,8.077L156.395,8.064L156.34,8.052L156.286,8.041L156.23,8.032L156.174,8.024L156.118,8.018L156.062,8.013L156.005,8.009L155.947,8.007L155.89,8.006L132.072,8.006Z" style="fill:white;"/>
            </g>
        </g>
    </g>
</svg>
