<?xml version="1.0" encoding="UTF-8" standalone="no"?>
<!DOCTYPE svg PUBLIC "-//W3C//DTD SVG 1.1//EN" "http://www.w3.org/Graphics/SVG/1.1/DTD/svg11.dtd">
<svg width="100%" height="100%" viewBox="0 0 60 60" version="1.1" xmlns="http://www.w3.org/2000/svg" xmlns:xlink="http://www.w3.org/1999/xlink" xml:space="preserve" xmlns:serif="http://www.serif.com/" style="fill-rule:evenodd;clip-rule:evenodd;stroke-linejoin:round;stroke-miterlimit:2;">
    <g transform="matrix(1,0,0,1,-126.795,0)">
        <g id="Artboard1" transform="matrix(3.34604,0,0,3.34604,-1339.96,-1015.3)">
            <rect x="438.355" y="303.434" width="17.932" height="17.932" style="fill:none;"/>
            <g transform="matrix(0.270363,0,0,0.187833,404.161,304.572)">
                <rect x="129.834" y="10.245" width="31.277" height="19.755" style="fill:white;"/>
            </g>
            <g transform="matrix(0.29886,0,0,0.29886,400.461,303.434)">
                <path d="M159.882,14.005L181.518,14.005C182.754,14.005 183.757,15.008 183.757,16.243L183.757,50.994L129.834,50.994L129.834,24.48C129.834,24.48 129.834,20.253 129.834,20.253C129.834,19.539 130.413,18.96 131.127,18.96L149.693,18.96C150.158,18.937 150.219,18.915 150.515,18.53L153.341,14.005L159.882,14.005L159.882,14.005ZM129.834,16.96L129.834,14.721L129.834,10.245C129.834,9.009 130.837,8.006 132.072,8.006L155.89,8.006C157.125,8.006 158.128,9.009 158.128,10.245L158.128,12.005L152.755,12.005C152.29,12.027 152.228,12.05 151.933,12.435L149.106,16.96L129.834,16.96Z" style="fill:rgb(0,0,255);"/>
            </g>
        </g>
    </g>
</svg>
