<?xml version="1.0" encoding="UTF-8" standalone="no"?>
<!DOCTYPE svg PUBLIC "-//W3C//DTD SVG 1.1//EN" "http://www.w3.org/Graphics/SVG/1.1/DTD/svg11.dtd">
<svg width="100%" height="100%" viewBox="0 0 41 41" version="1.1" xmlns="http://www.w3.org/2000/svg" xmlns:xlink="http://www.w3.org/1999/xlink" xml:space="preserve" xmlns:serif="http://www.serif.com/" style="fill-rule:evenodd;clip-rule:evenodd;stroke-linecap:round;stroke-linejoin:round;stroke-miterlimit:1.5;">
    <g transform="matrix(1,0,0,1,-297.409,-86.9917)">
        <g id="Artboard1" transform="matrix(2.23274,0,0,2.23449,-681.323,-591.028)">
            <rect x="438.355" y="303.434" width="17.932" height="17.932" style="fill:none;"/>
            <clipPath id="_clip1">
                <rect x="438.355" y="303.434" width="17.932" height="17.932"/>
            </clipPath>
            <g clip-path="url(#_clip1)">
                <g transform="matrix(0.81682,0,0,0.788727,186.39,304.01)">
                    <rect x="305.817" y="-3.719" width="29.696" height="27.979"/>
                    <path d="M335.62,-4.849L335.727,-4.832L335.831,-4.805L335.932,-4.768L336.03,-4.72L336.122,-4.663L336.208,-4.596L336.288,-4.522L336.36,-4.439L336.425,-4.35L336.48,-4.254L336.526,-4.153L336.562,-4.049L336.588,-3.941L336.604,-3.83L336.609,-3.719L336.609,24.26L336.604,24.371L336.588,24.481L336.562,24.589L336.526,24.694L336.48,24.795L336.425,24.89L336.36,24.979L336.288,25.062L336.208,25.137L336.122,25.203L336.03,25.26L335.932,25.308L335.831,25.346L335.727,25.373L335.62,25.389L335.513,25.394L305.817,25.394L305.71,25.389L305.603,25.373L305.499,25.346L305.397,25.308L305.3,25.26L305.208,25.203L305.121,25.137L305.042,25.062L304.969,24.979L304.905,24.89L304.85,24.795L304.804,24.694L304.768,24.589L304.741,24.481L304.726,24.371L304.72,24.26L304.72,-3.719L304.726,-3.83L304.741,-3.941L304.768,-4.049L304.804,-4.153L304.85,-4.254L304.905,-4.35L304.969,-4.439L305.042,-4.522L305.121,-4.596L305.208,-4.663L305.3,-4.72L305.397,-4.768L305.499,-4.805L305.603,-4.832L305.71,-4.849L305.817,-4.854L335.513,-4.854L335.62,-4.849ZM305.817,-3.719L305.817,24.26L335.513,24.26L335.513,-3.719L305.817,-3.719Z" style="fill:rgb(121,121,121);"/>
                </g>
                <g transform="matrix(6.72632e-17,1.09763,-1.32941,8.13391e-17,864.697,-178.593)">
                    <g>
                        <g transform="matrix(0.44788,0,0,0.44753,345.11,303.434)">
                            <path d="M228.21,30L239.295,20.034" style="fill:none;stroke:white;stroke-width:1.64px;"/>
                        </g>
                        <g transform="matrix(-0.44788,0,0,0.44753,549.531,303.434)">
                            <path d="M228.21,30L239.295,20.034" style="fill:none;stroke:white;stroke-width:1.64px;"/>
                        </g>
                    </g>
                </g>
            </g>
        </g>
    </g>
</svg>
