<?xml version="1.0" encoding="UTF-8" standalone="no"?>
<!DOCTYPE svg PUBLIC "-//W3C//DTD SVG 1.1//EN" "http://www.w3.org/Graphics/SVG/1.1/DTD/svg11.dtd">
<svg width="100%" height="100%" viewBox="0 0 60 60" version="1.1" xmlns="http://www.w3.org/2000/svg" xmlns:xlink="http://www.w3.org/1999/xlink" xml:space="preserve" xmlns:serif="http://www.serif.com/" style="fill-rule:evenodd;clip-rule:evenodd;stroke-linejoin:round;stroke-miterlimit:2;">
    <g transform="matrix(1,0,0,1,-126.795,-72.2924)">
        <g id="Artboard1" transform="matrix(3.34604,0,0,3.34604,-1339.96,-943.012)">
            <rect x="438.355" y="303.434" width="17.932" height="17.932" style="fill:none;"/>
            <g transform="matrix(0.526012,0,0,0.526012,368.274,292.044)">
                <path d="M151.571,51.826C149.251,51.826 147.183,51.322 145.368,50.313C143.553,49.304 142.128,47.855 141.094,45.964C140.06,44.072 139.544,41.841 139.544,39.269C139.544,36.664 140.031,34.386 141.006,32.436C141.981,30.486 143.334,28.986 145.065,27.935C146.797,26.885 148.755,26.36 150.94,26.36C152.873,26.36 154.617,26.809 156.172,27.709C157.727,28.608 158.958,29.944 159.866,31.718C160.774,33.491 161.228,35.63 161.228,38.135C161.228,38.538 161.194,39.109 161.127,39.849L161.076,40.555L145.267,40.555C145.519,42.757 146.208,44.417 147.335,45.535C148.461,46.653 149.806,47.212 151.369,47.212C152.478,47.212 153.596,46.955 154.722,46.443C155.849,45.93 156.773,45.211 157.496,44.287L160.698,47.489C158.261,50.38 155.218,51.826 151.571,51.826ZM155.454,36.319C155.454,35.311 155.256,34.378 154.861,33.52C154.466,32.663 153.903,31.978 153.172,31.465C152.441,30.953 151.596,30.696 150.638,30.696C149.226,30.696 148.058,31.205 147.133,32.222C146.208,33.239 145.654,34.605 145.469,36.319L155.454,36.319Z" style="fill:rgb(0,160,255);fill-rule:nonzero;"/>
            </g>
            <g transform="matrix(0.286674,0,0,0.286674,402.429,304.007)">
                <path d="M179.123,14.579L179.137,14.537L179.203,14.333L179.265,14.132L179.325,13.933L179.382,13.737L179.437,13.543L179.489,13.352L179.538,13.163L179.584,12.976L179.627,12.792L179.668,12.611L179.707,12.432L179.742,12.256L179.776,12.082L179.806,11.911L179.834,11.742L179.86,11.576L179.883,11.412L179.904,11.251L179.922,11.093L179.938,10.937L179.951,10.784L179.962,10.633L179.971,10.485L179.978,10.34L179.982,10.198L179.984,10.057L179.984,9.92L179.982,9.785L179.977,9.653L179.971,9.524L179.962,9.397L179.952,9.273L179.939,9.152L179.925,9.033L179.909,8.917L179.891,8.803L179.871,8.693L179.85,8.584L179.827,8.479L179.802,8.376L179.776,8.276L179.748,8.178L179.719,8.082L179.688,7.99L179.656,7.899L179.622,7.812L179.588,7.726L179.551,7.643L179.514,7.562L179.476,7.484L179.436,7.408L179.395,7.334L179.353,7.262L179.31,7.192L179.266,7.124L179.221,7.058L179.175,6.994L179.127,6.932L179.079,6.872L179.03,6.813L178.979,6.756L178.928,6.701L178.876,6.647L178.822,6.595L178.768,6.544L178.735,6.516L178.712,6.495L178.655,6.446L178.598,6.399L178.539,6.353L178.479,6.308L178.417,6.264L178.355,6.222L178.291,6.181L178.225,6.141L178.158,6.102L178.09,6.064L178.02,6.027L177.949,5.991L177.876,5.956L177.802,5.923L177.726,5.89L177.648,5.858L177.569,5.828L177.488,5.799L177.405,5.771L177.321,5.743L177.235,5.717L177.148,5.693L177.058,5.669L176.967,5.647L176.875,5.625L176.78,5.605L176.684,5.587L176.586,5.569L176.487,5.553L176.386,5.538L176.283,5.524L176.178,5.512L176.072,5.5L175.964,5.491L175.854,5.482L175.743,5.475L175.63,5.47L175.516,5.466L175.4,5.463L175.282,5.461L175.163,5.462L175.042,5.463L174.92,5.466L174.796,5.471L174.671,5.476L174.544,5.484L174.416,5.493L174.286,5.503L174.155,5.515L174.022,5.529L173.889,5.544L173.753,5.56L173.617,5.578L173.479,5.598L173.34,5.619L173.199,5.641L173.057,5.666L172.914,5.691L172.77,5.719L172.625,5.747L172.478,5.778L172.42,5.791L172.33,5.809L172.181,5.84L172.031,5.873L171.879,5.908L171.727,5.944L171.573,5.982L171.418,6.022L171.263,6.063L171.106,6.105L170.948,6.149L170.789,6.195L170.629,6.242L170.468,6.291L170.306,6.341L170.144,6.393L169.98,6.446L169.816,6.501L169.65,6.558L169.484,6.616L169.317,6.675L169.149,6.737L168.98,6.799L168.811,6.863L168.641,6.929L168.47,6.997L168.298,7.065L168.126,7.136L167.953,7.208L167.779,7.281L167.605,7.356L167.429,7.433L167.254,7.511L167.078,7.59L166.901,7.671L166.723,7.754L166.707,7.762L166.544,7.833L166.363,7.913L166.182,7.995L166,8.078L165.817,8.163L165.635,8.249L165.451,8.337L165.267,8.426L165.083,8.516L164.898,8.608L164.713,8.702L164.527,8.797L164.341,8.894L164.154,8.992L163.967,9.091L163.78,9.192L163.592,9.294L163.404,9.398L163.216,9.503L163.027,9.61L162.839,9.718L162.649,9.828L162.567,9.877L162.459,9.938L162.269,10.048L162.078,10.16L161.887,10.274L161.695,10.388L161.504,10.505L161.312,10.622L161.12,10.741L160.928,10.862L160.736,10.984L160.543,11.107L160.351,11.232L160.158,11.358L159.966,11.485L159.773,11.614L159.581,11.744L159.388,11.876L159.195,12.009L159.003,12.143L158.81,12.279L158.617,12.416L158.425,12.554L158.233,12.694L158.04,12.836L157.848,12.978L157.656,13.122L157.464,13.267L157.272,13.414L157.08,13.562L157.035,13.597L156.888,13.71L156.696,13.859L156.504,14.01L156.312,14.162L156.12,14.315L155.929,14.47L155.738,14.626L155.547,14.783L155.356,14.941L155.166,15.101L154.976,15.263L154.786,15.425L154.597,15.589L154.408,15.754L154.22,15.92L154.032,16.088L153.844,16.257L153.657,16.427L153.47,16.598L153.283,16.771L153.097,16.945L152.912,17.12L152.727,17.297L152.542,17.475L152.359,17.654L152.175,17.834L151.992,18.016L151.81,18.198L151.8,18.209L151.627,18.381L151.444,18.564L151.261,18.748L151.079,18.934L150.898,19.121L150.718,19.31L150.538,19.499L150.359,19.69L150.18,19.882L150.002,20.075L149.825,20.27L149.649,20.465L149.473,20.662L149.298,20.861L149.127,21.055L148.958,21.251L148.789,21.448L148.621,21.645L148.454,21.843L148.288,22.041L148.122,22.241L148.034,22.349L147.956,22.439L147.788,22.636L147.621,22.833L147.454,23.031L147.289,23.23L147.124,23.429L146.961,23.629L146.798,23.83L146.637,24.031L146.476,24.233L146.316,24.435L146.157,24.638L145.999,24.841L145.842,25.045L145.686,25.25L145.531,25.455L145.377,25.66L145.224,25.866L145.072,26.072L144.963,26.221L144.921,26.278L144.768,26.483L144.617,26.689L144.466,26.895L144.316,27.101L144.168,27.308L144.021,27.515L143.874,27.723L143.729,27.93L143.584,28.138L143.441,28.347L143.299,28.555L143.158,28.764L143.017,28.973L142.878,29.182L142.74,29.392L142.603,29.602L142.468,29.811L142.333,30.021L142.199,30.232L142.067,30.442L141.935,30.652L141.805,30.863L141.676,31.073L141.548,31.284L141.499,31.364L141.42,31.494L141.293,31.704L141.167,31.914L141.042,32.123L140.918,32.333L140.796,32.543L140.674,32.753L140.554,32.963L140.435,33.172L140.317,33.382L140.2,33.591L140.085,33.801L139.97,34.01L139.857,34.219L139.745,34.428L139.635,34.636L139.525,34.845L139.417,35.053L139.31,35.261L139.204,35.469L139.099,35.676L138.996,35.884L138.894,36.09L138.793,36.297L138.694,36.503L138.683,36.525L138.594,36.709L138.495,36.913L138.398,37.118L138.302,37.322L138.207,37.525L138.113,37.729L138.021,37.931L137.93,38.134L137.84,38.336L137.752,38.537L137.665,38.738L137.579,38.938L137.495,39.138L137.412,39.337L137.33,39.536L137.25,39.734L137.171,39.931L137.093,40.128L137.079,40.165L137.013,40.323L136.934,40.517L136.856,40.711L136.78,40.904L136.705,41.096L136.632,41.287L136.559,41.478L136.489,41.668L136.419,41.858L136.351,42.046L136.285,42.234L136.22,42.421L136.156,42.608L136.094,42.793L136.033,42.978L135.973,43.161L135.915,43.344L135.859,43.526L135.804,43.707L135.75,43.887L135.698,44.067L135.647,44.245L135.598,44.422L135.55,44.598L135.503,44.773L135.459,44.947L135.415,45.121L135.373,45.292L135.333,45.463L135.301,45.6L135.293,45.633L135.254,45.801L135.217,45.969L135.181,46.135L135.146,46.3L135.113,46.463L135.081,46.626L135.051,46.787L135.022,46.947L134.995,47.106L134.97,47.263L134.946,47.419L134.923,47.574L134.902,47.727L134.882,47.879L134.864,48.03L134.848,48.179L134.833,48.327L134.819,48.473L134.807,48.618L134.796,48.762L134.787,48.903L134.779,49.044L134.773,49.183L134.769,49.32L134.765,49.455L134.764,49.589L134.763,49.722L134.765,49.852L134.767,49.981L134.771,50.109L134.777,50.234L134.784,50.358L134.792,50.48L134.802,50.601L134.813,50.719L134.825,50.836L134.839,50.951L134.854,51.064L134.871,51.175L134.888,51.285L134.908,51.393L134.928,51.498L134.95,51.602L134.973,51.704L134.997,51.804L135.022,51.903L135.049,51.999L135.077,52.094L135.097,52.159L135.106,52.186L135.135,52.277L135.166,52.366L135.198,52.454L135.231,52.539L135.266,52.623L135.301,52.705L135.338,52.785L135.375,52.863L135.414,52.94L135.454,53.015L135.495,53.088L135.537,53.16L135.58,53.23L135.625,53.298L135.67,53.365L135.717,53.43L135.765,53.494L135.814,53.557L135.864,53.618L135.916,53.677L135.969,53.736L136.023,53.793L136.079,53.848L136.137,53.903L136.196,53.956L136.256,54.008L136.318,54.059L136.382,54.108L136.448,54.156L136.516,54.203L136.585,54.249L136.657,54.294L136.73,54.337L136.806,54.38L136.884,54.42L136.964,54.46L137.046,54.498L137.131,54.535L137.218,54.571L137.307,54.605L137.399,54.638L137.494,54.669L137.591,54.698L137.69,54.726L137.793,54.752L137.897,54.777L138.005,54.8L138.115,54.821L138.228,54.84L138.344,54.857L138.462,54.873L138.583,54.886L138.707,54.897L138.834,54.906L138.963,54.914L139.095,54.918L139.23,54.921L139.368,54.922L139.508,54.92L139.651,54.916L139.797,54.909L139.945,54.9L140.097,54.889L140.251,54.875L140.408,54.859L140.567,54.84L140.729,54.819L140.894,54.795L141.062,54.769L141.232,54.74L141.405,54.708L141.58,54.673L141.759,54.636L141.939,54.596L142.123,54.553L142.309,54.508L142.498,54.46L142.689,54.409L142.883,54.355L143.08,54.298L143.279,54.238L143.481,54.176L143.507,54.167L143.689,54.109L144.702,54.538L144.273,55.551L144.095,55.639L144.07,55.651L143.866,55.748L143.663,55.843L143.462,55.934L143.263,56.022L143.064,56.107L142.868,56.189L142.672,56.268L142.479,56.344L142.286,56.417L142.095,56.487L141.905,56.554L141.717,56.618L141.53,56.679L141.345,56.737L141.161,56.791L140.978,56.843L140.796,56.892L140.616,56.938L140.437,56.981L140.259,57.02L140.082,57.057L139.907,57.091L139.733,57.122L139.56,57.149L139.388,57.174L139.217,57.196L139.048,57.214L138.879,57.23L138.712,57.243L138.546,57.252L138.381,57.258L138.217,57.261L138.055,57.261L137.893,57.258L137.733,57.252L137.573,57.242L137.415,57.23L137.258,57.214L137.103,57.195L136.948,57.172L136.795,57.147L136.643,57.118L136.492,57.085L136.343,57.05L136.195,57.011L136.048,56.968L135.903,56.923L135.759,56.874L135.617,56.821L135.477,56.766L135.338,56.707L135.2,56.645L135.065,56.579L134.932,56.511L134.8,56.439L134.67,56.363L134.542,56.285L134.417,56.204L134.293,56.119L134.171,56.032L134.052,55.942L133.935,55.848L133.82,55.752L133.707,55.653L133.597,55.552L133.489,55.447L133.383,55.34L133.28,55.231L133.179,55.119L133.081,55.005L132.985,54.888L132.891,54.77L132.8,54.649L132.711,54.525L132.625,54.4L132.541,54.273L132.459,54.143L132.379,54.012L132.302,53.879L132.228,53.744L132.155,53.607L132.085,53.468L132.065,53.427L132.017,53.327L131.952,53.185L131.889,53.041L131.828,52.896L131.77,52.749L131.713,52.6L131.659,52.45L131.606,52.298L131.556,52.145L131.508,51.99L131.462,51.834L131.417,51.676L131.375,51.517L131.335,51.357L131.297,51.195L131.26,51.032L131.226,50.867L131.193,50.701L131.162,50.534L131.133,50.366L131.106,50.196L131.08,50.025L131.057,49.852L131.035,49.679L131.015,49.504L130.996,49.328L130.98,49.15L130.965,48.972L130.952,48.792L130.94,48.611L130.93,48.429L130.922,48.245L130.915,48.06L130.91,47.875L130.907,47.688L130.905,47.5L130.905,47.31L130.907,47.12L130.91,46.928L130.915,46.736L130.921,46.542L130.929,46.347L130.938,46.151L130.949,45.954L130.962,45.756L130.976,45.557L130.991,45.357L131.008,45.156L131.027,44.954L131.031,44.914L131.048,44.751L131.071,44.547L131.096,44.342L131.122,44.136L131.15,43.929L131.179,43.721L131.21,43.513L131.242,43.303L131.276,43.092L131.311,42.881L131.347,42.669L131.385,42.456L131.425,42.242L131.465,42.027L131.508,41.811L131.552,41.595L131.597,41.377L131.643,41.159L131.691,40.94L131.741,40.721L131.792,40.5L131.844,40.279L131.898,40.057L131.953,39.834L132.009,39.611L132.067,39.387L132.127,39.162L132.187,38.936L132.249,38.71L132.301,38.526L132.314,38.484L132.383,38.258L132.453,38.031L132.525,37.804L132.598,37.576L132.672,37.348L132.748,37.119L132.825,36.89L132.904,36.66L132.983,36.43L133.065,36.199L133.147,35.968L133.231,35.736L133.316,35.504L133.403,35.271L133.491,35.038L133.58,34.805L133.671,34.571L133.753,34.362L133.763,34.337L133.858,34.103L133.954,33.869L134.051,33.635L134.15,33.4L134.25,33.165L134.352,32.93L134.455,32.694L134.559,32.458L134.664,32.222L134.77,31.986L134.878,31.749L134.988,31.512L135.098,31.275L135.21,31.038L135.323,30.801L135.437,30.564L135.552,30.326L135.669,30.088L135.787,29.85L135.906,29.613L136.027,29.375L136.149,29.137L136.272,28.898L136.396,28.66L136.474,28.513L136.522,28.422L136.65,28.185L136.78,27.948L136.91,27.71L137.042,27.473L137.175,27.236L137.31,26.999L137.445,26.762L137.582,26.525L137.72,26.288L137.859,26.051L137.999,25.815L138.141,25.578L138.283,25.342L138.427,25.106L138.572,24.87L138.719,24.634L138.866,24.399L139.015,24.163L139.165,23.928L139.316,23.694L139.468,23.459L139.621,23.225L139.776,22.991L139.932,22.758L139.975,22.693L140.09,22.526L140.251,22.295L140.412,22.064L140.575,21.834L140.739,21.604L140.904,21.375L141.07,21.146L141.238,20.917L141.406,20.689L141.576,20.462L141.747,20.235L141.919,20.008L142.092,19.782L142.266,19.557L142.441,19.332L142.617,19.107L142.795,18.883L142.973,18.66L143.153,18.438L143.236,18.336L143.336,18.218L143.522,18.001L143.71,17.784L143.899,17.568L144.088,17.353L144.279,17.139L144.471,16.925L144.664,16.712L144.864,16.493L145.064,16.276L145.266,16.06L145.468,15.846L145.671,15.633L145.875,15.421L146.079,15.211L146.284,15.003L146.49,14.795L146.696,14.59L146.903,14.385L147.111,14.182L147.319,13.981L147.516,13.792L147.528,13.781L147.739,13.584L147.951,13.389L148.163,13.195L148.376,13.002L148.589,12.811L148.803,12.622L149.018,12.434L149.232,12.247L149.448,12.062L149.663,11.879L149.879,11.696L150.096,11.516L150.312,11.336L150.53,11.159L150.747,10.982L150.965,10.807L151.183,10.634L151.402,10.462L151.62,10.292L151.84,10.123L152.059,9.955L152.279,9.789L152.498,9.625L152.719,9.461L152.939,9.3L153.159,9.14L153.38,8.981L153.549,8.861L153.601,8.824L153.823,8.67L154.046,8.517L154.268,8.366L154.49,8.216L154.713,8.068L154.935,7.921L155.158,7.775L155.381,7.631L155.603,7.489L155.826,7.348L156.049,7.209L156.272,7.071L156.495,6.935L156.717,6.8L156.94,6.666L157.163,6.534L157.385,6.404L157.608,6.275L157.83,6.148L158.052,6.022L158.275,5.898L158.497,5.775L158.719,5.654L158.94,5.534L159.162,5.416L159.383,5.299L159.605,5.184L159.826,5.07L159.95,5.007L160.047,4.959L160.268,4.85L160.49,4.743L160.711,4.638L160.932,4.534L161.152,4.431L161.372,4.33L161.592,4.231L161.811,4.133L162.03,4.037L162.249,3.942L162.467,3.849L162.685,3.757L162.903,3.667L163.12,3.579L163.337,3.492L163.553,3.406L163.769,3.322L163.984,3.24L164.199,3.159L164.413,3.08L164.627,3.002L164.821,2.933L164.841,2.927L165.056,2.858L165.27,2.79L165.484,2.724L165.697,2.66L165.909,2.597L166.121,2.536L166.332,2.476L166.542,2.418L166.752,2.361L166.961,2.306L167.169,2.253L167.377,2.201L167.584,2.151L167.79,2.103L167.995,2.056L168.2,2.01L168.404,1.966L168.607,1.924L168.809,1.884L169.011,1.845L169.211,1.808L169.411,1.772L169.61,1.738L169.808,1.705L170.006,1.675L170.202,1.645L170.398,1.618L170.592,1.592L170.786,1.568L170.979,1.545L171.171,1.524L171.362,1.505L171.552,1.488L171.741,1.472L171.855,1.463L171.93,1.458L172.117,1.448L172.304,1.439L172.489,1.432L172.674,1.427L172.857,1.423L173.039,1.421L173.221,1.421L173.401,1.422L173.58,1.425L173.759,1.43L173.936,1.437L174.112,1.445L174.287,1.456L174.46,1.468L174.633,1.482L174.805,1.498L174.975,1.515L175.144,1.535L175.312,1.556L175.479,1.579L175.645,1.604L175.81,1.631L175.973,1.66L176.135,1.691L176.296,1.724L176.456,1.759L176.614,1.796L176.771,1.834L176.927,1.875L177.081,1.918L177.234,1.963L177.386,2.01L177.537,2.06L177.686,2.111L177.833,2.165L177.979,2.22L178.124,2.278L178.267,2.338L178.409,2.401L178.549,2.466L178.687,2.533L178.824,2.602L178.959,2.674L179.092,2.748L179.223,2.824L179.353,2.903L179.481,2.984L179.607,3.067L179.731,3.153L179.853,3.242L179.972,3.332L180.09,3.425L180.205,3.521L180.318,3.619L180.429,3.719L180.538,3.822L180.644,3.927L180.747,4.035L180.848,4.145L180.946,4.257L181.042,4.371L181.081,4.42L181.134,4.488L181.224,4.607L181.31,4.728L181.394,4.851L181.475,4.977L181.553,5.104L181.627,5.233L181.699,5.364L181.767,5.497L181.833,5.631L181.895,5.768L181.954,5.906L182.01,6.045L182.062,6.186L182.112,6.329L182.158,6.473L182.201,6.618L182.241,6.765L182.277,6.913L182.31,7.062L182.341,7.213L182.368,7.364L182.392,7.517L182.412,7.671L182.43,7.826L182.444,7.983L182.456,8.14L182.464,8.298L182.469,8.458L182.472,8.618L182.471,8.78L182.467,8.943L182.46,9.106L182.451,9.271L182.438,9.437L182.422,9.604L182.404,9.772L182.382,9.941L182.358,10.111L182.331,10.282L182.3,10.454L182.267,10.628L182.231,10.802L182.192,10.978L182.151,11.154L182.106,11.332L182.059,11.511L182.008,11.691L181.955,11.873L181.899,12.055L181.84,12.239L181.778,12.424L181.713,12.611L181.646,12.798L181.575,12.987L181.502,13.177L181.425,13.369L181.346,13.561L181.264,13.755L181.179,13.951L181.091,14.148L181,14.346L180.906,14.545L180.809,14.746L180.709,14.948L180.606,15.152L180.585,15.192L180.501,15.354L179.475,15.78L179.068,14.747L179.123,14.579Z" style="fill:rgb(255,175,0);"/>
            </g>
        </g>
    </g>
</svg>
