<?xml version="1.0" encoding="UTF-8" standalone="no"?>
<!DOCTYPE svg PUBLIC "-//W3C//DTD SVG 1.1//EN" "http://www.w3.org/Graphics/SVG/1.1/DTD/svg11.dtd">
<svg width="100%" height="100%" viewBox="0 0 30 30" version="1.1" xmlns="http://www.w3.org/2000/svg" xmlns:xlink="http://www.w3.org/1999/xlink" xml:space="preserve" xmlns:serif="http://www.serif.com/" style="fill-rule:evenodd;clip-rule:evenodd;stroke-linecap:round;stroke-linejoin:round;stroke-miterlimit:1.5;">
    <g transform="matrix(1,0,0,1,-251.029,-1.13687e-13)">
        <g id="Artboard1" transform="matrix(1.67171,0,0,1.67302,-481.774,-507.652)">
            <rect x="438.355" y="303.434" width="17.932" height="17.932" style="fill:none;"/>
            <clipPath id="_clip1">
                <rect x="438.355" y="303.434" width="17.932" height="17.932"/>
            </clipPath>
            <g clip-path="url(#_clip1)">
                <g transform="matrix(0.961344,0,0,0.960592,227.932,293.16)">
                    <circle cx="228.21" cy="20.034" r="20.018"/>
                </g>
                <g transform="matrix(0.499395,0,0,0.499004,314.473,304.916)">
                    <path d="M268.145,6.998L274.026,6.998L274.026,12.933L274.026,6.998L266.017,15" style="fill:none;stroke:white;stroke-width:2.4px;"/>
                </g>
                <g transform="matrix(3.05791e-17,-0.499004,0.499395,3.05552e-17,439.829,445.148)">
                    <path d="M266.017,6.998L274.026,6.998L274.026,11.723L274.026,6.998" style="fill:none;stroke:white;stroke-width:2.4px;"/>
                </g>
                <g transform="matrix(-0.499395,6.11104e-17,-6.11582e-17,-0.499004,580.168,319.89)">
                    <path d="M266.017,6.998L274.026,6.998L274.026,15L274.026,6.998" style="fill:none;stroke:white;stroke-width:2.4px;"/>
                </g>
                <g transform="matrix(3.05791e-17,0.499004,-0.499395,3.05552e-17,454.811,179.661)">
                    <path d="M269.381,6.998L274.026,6.998L274.026,15L274.026,6.998" style="fill:none;stroke:white;stroke-width:2.4px;"/>
                </g>
            </g>
        </g>
    </g>
</svg>
