<?xml version="1.0" encoding="UTF-8" standalone="no"?>
<!DOCTYPE svg PUBLIC "-//W3C//DTD SVG 1.1//EN" "http://www.w3.org/Graphics/SVG/1.1/DTD/svg11.dtd">
<svg width="100%" height="100%" viewBox="0 0 60 60" version="1.1" xmlns="http://www.w3.org/2000/svg" xmlns:xlink="http://www.w3.org/1999/xlink" xml:space="preserve" xmlns:serif="http://www.serif.com/" style="fill-rule:evenodd;clip-rule:evenodd;stroke-linejoin:round;stroke-miterlimit:2;">
    <g transform="matrix(1,0,0,1,-52.7225,-72.2924)">
        <g id="Artboard1" transform="matrix(3.34604,0,0,3.34604,-1414.03,-943.012)">
            <rect x="438.355" y="303.434" width="17.932" height="17.932" style="fill:none;"/>
            <g transform="matrix(-0.153864,0.0959971,-0.188616,-0.0330175,464.636,301.418)">
                <path d="M97.348,-0.516C94.79,-6.586 77.29,-0.468 61.218,4.485L61.218,19.982L94.72,1.628L91.218,33.72L69.042,54.767L91.218,54.767L97.348,-0.516Z" style="fill:rgb(128,125,124);"/>
            </g>
            <g transform="matrix(0.29886,0,0,0.29886,422.598,281.829)">
                <path d="M80.214,81.665L98.593,81.257L99.593,81.257L100.186,107.957L90.867,108.163L90.867,107.163L78.21,107.444L78.048,100.119L87.036,100.119C87.589,100.096 88.014,99.665 88.036,99.119L88.036,86.755C88.022,86.394 87.842,86.082 87.536,85.888L80.214,81.665ZM76.043,99.921L76.171,105.704L68.265,107.115L67.087,79.159L89.688,75.126L89.87,79.45L76.596,79.744L76.572,79.746C75.896,79.761 75.641,80.196 75.618,80.744L75.618,99.119C75.632,99.453 75.795,99.741 76.043,99.921ZM77.657,82.498L86.036,87.332L86.036,98.119L78.003,98.119L77.657,82.498Z" style="fill:white;"/>
            </g>
            <g transform="matrix(0.316133,0.0553394,1.11455e-18,0.203081,420.918,304.068)">
                <path d="M91.218,4.485L61.218,4.485L65.645,50.489L91.218,54.767L91.218,4.485Z" style="fill:rgb(194,194,194);"/>
            </g>
            <g transform="matrix(-0.153864,0.0959971,-6.85253e-18,0.203081,463.79,300.359)">
                <path d="M91.218,4.485L61.218,4.485L66.855,51.749L91.218,54.767L91.218,4.485Z" style="fill:rgb(128,125,124);"/>
            </g>
            <g transform="matrix(0.29886,0,0,0.29886,422.598,303.485)">
                <path d="M68.947,28.916L71.604,24.411L80.5,26.423L82.444,29.927L84.224,29.254L81.827,33.266L76.266,32.328L78.345,31.628L76.266,28.064L73.692,32.493L68.947,28.916Z" style="fill:rgb(16,141,0);"/>
            </g>
            <g transform="matrix(-0.087813,0.285668,-0.285668,-0.087813,462.26,295.902)">
                <path d="M70.511,28.583L75.176,23.829L82.587,26.214L82.856,29.894L84.757,29.31L80.805,33.417L75.975,32.357L78.225,31.665L77.864,27.865L73.452,32.411L70.511,28.583Z" style="fill:rgb(16,141,0);"/>
            </g>
            <g transform="matrix(-0.166763,-0.248007,0.248007,-0.166763,449.171,338.692)">
                <path d="M68.239,30.093L72.613,25.835L82.314,27.016L83.576,29.898L85.745,29.186L81.897,32.972L75.836,32.544L78.327,31.739L76.997,28.783L72.749,32.873L68.239,30.093Z" style="fill:rgb(16,141,0);"/>
            </g>
        </g>
    </g>
</svg>
