<?xml version="1.0" encoding="UTF-8" standalone="no"?>
<!DOCTYPE svg PUBLIC "-//W3C//DTD SVG 1.1//EN" "http://www.w3.org/Graphics/SVG/1.1/DTD/svg11.dtd">
<svg width="100%" height="100%" viewBox="0 0 60 60" version="1.1" xmlns="http://www.w3.org/2000/svg" xmlns:xlink="http://www.w3.org/1999/xlink" xml:space="preserve" xmlns:serif="http://www.serif.com/" style="fill-rule:evenodd;clip-rule:evenodd;stroke-linecap:round;stroke-linejoin:round;stroke-miterlimit:1.5;">
    <g transform="matrix(1,0,0,1,-52.7225,1.13687e-13)">
        <g id="Artboard1" transform="matrix(3.34604,0,0,3.34604,-1414.03,-1015.3)">
            <rect x="438.355" y="303.434" width="17.932" height="17.932" style="fill:none;"/>
            <g transform="matrix(0.29886,0,0,0.29886,422.598,303.485)">
                <path d="M89.913,7.988L99.571,7.774L100.186,35.496L77.233,36.005L77.168,33.066L68.265,34.654L67.087,6.698L89.688,2.665L89.913,7.988Z" style="fill:rgb(178,178,178);stroke:white;stroke-width:2px;"/>
            </g>
            <g transform="matrix(-0.153864,0.0959971,-0.188616,-0.0330175,464.636,301.418)">
                <rect x="61.218" y="4.485" width="30" height="50.282" style="fill:rgb(128,125,124);"/>
            </g>
            <g transform="matrix(-0.153864,0.0959971,-0.188616,-0.0330175,464.636,301.418)">
                <path d="M58.75,56.507L58.772,6.002C59.156,4.535 61.539,2.282 63.055,2.148L93.055,2.148C93.399,2.18 93.625,2.16 93.686,2.745L93.686,53.027C93.547,54.431 90.957,56.965 89.38,57.105L59.38,57.105C59.095,57.078 58.824,57.226 58.75,56.507ZM88.75,52.43L88.75,6.823L63.686,6.823C63.686,40.961 52.704,52.43 88.75,52.43Z" style="fill:white;"/>
            </g>
            <g transform="matrix(0.335538,-0.0598734,0.0144888,0.343637,420.519,307.466)">
                <rect x="65.705" y="5.687" width="20.131" height="24.313" style="fill:white;stroke:rgb(128,125,124);stroke-width:1.88px;"/>
            </g>
            <g transform="matrix(0.340755,-0.00755857,0.00755857,0.340755,423.064,304.519)">
                <rect x="65.705" y="5.687" width="20.131" height="24.313" style="fill:white;stroke:rgb(128,125,124);stroke-width:1.75px;"/>
            </g>
            <g transform="matrix(0.340755,-0.00755857,0.00755857,0.340755,423.064,304.519)">
                <path d="M65.347,21.794L65.705,5.687L74.721,11.158L74.48,21.997L65.347,21.794Z" style="fill:white;stroke:rgb(128,125,124);stroke-width:1.75px;"/>
            </g>
            <g transform="matrix(-0.153864,0.0959971,-0.188616,-0.0330175,464.636,301.418)">
                <path d="M88.75,52.43L88.75,6.823L63.686,6.823C63.686,40.961 52.704,52.43 88.75,52.43Z" style="fill:none;"/>
                <clipPath id="_clip1">
                    <path d="M88.75,52.43L88.75,6.823L63.686,6.823C63.686,40.961 52.704,52.43 88.75,52.43Z"/>
                </clipPath>
                <g clip-path="url(#_clip1)">
                    <path d="M59.239,11.046C59.148,9.758 61.848,6.959 63.526,6.814L88.317,6.728C88.665,6.759 88.893,6.739 88.952,7.33L88.763,53.031C88.588,54.841 84.039,58.578 83.827,56.503L84.013,11.405L59.667,11.471C59.552,11.433 59.37,11.442 59.239,11.046Z" style="fill:rgb(128,125,124);"/>
                </g>
            </g>
            <g transform="matrix(0.316133,0.0553394,1.11455e-18,0.203081,420.918,304.068)">
                <path d="M91.218,4.485L61.218,4.485L65.645,50.489L91.218,54.767L91.218,4.485Z" style="fill:rgb(194,194,194);"/>
            </g>
            <g transform="matrix(0.316133,0.0553394,1.11455e-18,0.203081,420.918,304.068)">
                <path d="M61.381,2.991L91.488,3.001C92.054,3.167 92.136,3.514 92.163,4.228L92.163,54.51C92.126,55.468 91.572,56.294 90.961,56.254L65.388,51.976C64.87,51.838 64.814,51.723 64.71,50.957L60.282,4.953C60.232,4.017 60.701,3.059 61.381,2.991ZM66.492,49.102L90.272,53.08L90.272,5.979L62.342,5.979C63.725,20.354 65.109,34.728 66.492,49.102Z" style="fill:white;"/>
            </g>
            <g transform="matrix(-0.153864,0.0959971,-6.85253e-18,0.203081,463.79,300.359)">
                <path d="M91.218,4.485L61.218,4.485L66.855,51.749L91.218,54.767L91.218,4.485Z" style="fill:rgb(128,125,124);"/>
            </g>
            <g transform="matrix(-0.153864,0.0959971,-6.85253e-18,0.203081,463.79,300.359)">
                <path d="M61.037,3.106C59.564,3.98 59.26,4.707 59.282,5.526L64.919,52.789C64.992,53.138 65.028,53.349 65.653,53.473L90.016,56.492C91.247,56.549 93.056,55.091 93.16,53.849L93.16,3.567C93.094,2.81 93.02,2.805 92.246,2.751L62.246,2.751C61.623,2.792 61.55,2.852 61.037,3.106ZM89.275,6.22L89.275,52.654L68.718,50.107L63.484,6.22C72.081,6.22 80.678,6.22 89.275,6.22Z" style="fill:white;"/>
            </g>
            <g transform="matrix(0.29886,0,0,0.29886,422.598,303.485)">
                <path d="M68.947,28.916L71.604,24.411L80.5,26.423L82.444,29.927L84.224,29.254L81.827,33.266L76.266,32.328L78.345,31.628L76.266,28.064L73.692,32.493L68.947,28.916Z" style="fill:rgb(16,141,0);"/>
            </g>
            <g transform="matrix(-0.087813,0.285668,-0.285668,-0.087813,462.26,295.902)">
                <path d="M70.511,28.583L75.176,23.829L82.587,26.214L82.856,29.894L84.757,29.31L80.805,33.417L75.975,32.357L78.225,31.665L77.864,27.865L73.452,32.411L70.511,28.583Z" style="fill:rgb(16,141,0);"/>
            </g>
            <g transform="matrix(-0.166763,-0.248007,0.248007,-0.166763,449.171,338.692)">
                <path d="M68.239,30.093L72.613,25.835L82.314,27.016L83.576,29.898L85.745,29.186L81.897,32.972L75.836,32.544L78.327,31.739L76.997,28.783L72.749,32.873L68.239,30.093Z" style="fill:rgb(16,141,0);"/>
            </g>
        </g>
    </g>
</svg>
